<?xml version="1.0" encoding="utf-8"?>
<!-- Generator: Adobe Illustrator 16.0.4, SVG Export Plug-In . SVG Version: 6.00 Build 0)  -->
<!DOCTYPE svg PUBLIC "-//W3C//DTD SVG 1.1//EN" "http://www.w3.org/Graphics/SVG/1.1/DTD/svg11.dtd">
<svg version="1.1" id="Layer_1" xmlns="http://www.w3.org/2000/svg" xmlns:xlink="http://www.w3.org/1999/xlink" x="0px" y="0px"
	 width="620.969px" height="664.467px" viewBox="0 0 620.969 664.467" enable-background="new 0 0 620.969 664.467"
	 xml:space="preserve">
<path fill="none" stroke="#010101" stroke-width="2" d="M56.76,343.817c-0.273,0.097-0.409,0.024-0.623-0.204
	c-0.391-0.418-0.674-1.088-1.287-1.15c-0.61-0.061-0.498,0.414-0.498,0.863c0,0.306,0.066,0.621,0.041,0.944
	c-0.031,0.397-0.154,0.894,0.375,1.066c0.697,0.23,1.336,0.031,1.992-0.33V343.817L56.76,343.817z M275.674,181.906
	c-1.229,0.607-2.713-0.287-3.986-0.287l-0.041,0.041v0.082c-0.648,0.213-0.423,2.574-2.367,3.203
	c-0.938,0.304-0.289,1.174-1.12,1.682c-0.679,0.416-1.437,0.473-2.159,0.575c-0.188,1.304-1.283,3.743-2.822,3.86
	c-1.556,0.118-1.762,1.366-1.496,2.626c0.405,1.911-0.992,3.773-2.117,5.378c-1.521,2.172,1.182,2.674-0.207,5.418
	c-0.236,2.724-2.399,1.444-2.616,3.778c-0.125,1.353-2.363,3.233-1.535,3.941l6.726,5.747c0.319,0.273,2.632,0.953,2.739,0.576
	c0.25-0.876-0.702-2.624,0.581-1.725c3.057,2.141,7.32,6.435,11.126,7.061c2.769,0.455,1.841,1.103,3.364,3.203
	c1.387,1.913,4.385,3.068,6.393,4.392c2.191,1.141,3.813,2.977,5.812,4.146c2.146,1.256,1.578-2.911,3.529-1.805
	c1.895,1.072,7.613,6.613,9.05,6.404c2.669-0.39,4.657-3.37,5.397,0.943c0.533,3.105,1.689,2.02,3.488,2.464
	c1.371,0.339,0.447,1.628,2.74,1.231c3.299-0.572,2.576,0.833,4.566,2.422c3.139,2.507,2.238-2.243,2.449-3.078l4.277,0.082
	c1.805,0.034,2.201,1.79,3.9,1.93c1.52-0.11,1.414-1.674,3.281-1.067c1.121,0.365,2.34-0.079,2.574-1.355
	c0.191-1.048,3.627,2.24,4.525,2.71c1.541,0.806,3.99,1.075,5.729,1.271c2.662,0.3,2.799,2.626,1.951,4.804
	c-0.805,2.068,2.75,2.44,4.4,3.12c2.098,0.295,2.365,2.71,3.279,2.71c1.34,0,1.684-1.031,2.533,0.861
	c2.373,5.283,10.342-5.359,11.209,1.848c0.783,6.506,4.686,1.117,7.473,2.34c3.08,1.352,5.973,0.287,9.299,2.258
	c2.447,1.45,3.148,2.604,6.104,1.479c1.031-0.394,3.207-2.507,3.945-2.464c0.414,0.026,0.709,2.02,0.869,2.464
	c0.482,1.317,2.902,0.569,4.07,1.724c1.836,1.816,1.727-1.232,3.529-1.232c2.037-0.119,1.398,0.529,2.824,1.313
	c0.961,0.531,1.404-0.356,2.115-0.697c0.723-0.348,2.082,0.58,2.533-0.369c1.115-2.347,3.029,3.068,5.396,0.861
	c0.93-0.867,0.072-3.629,0.789-4.967c1.352-2.52,1.658-2.308,0.623-5.337c-1.162-3.4-3.617-4.6-2.699-8.457
	c0.359-1.844,0.068-3.082,0-4.844c-0.09-2.337,1.182-3.981,1.91-6.035c0.295-0.828,0.988-1.824,1.037-2.668
	c0.057-0.996-0.506-0.896-1.203-1.355l0,0c0.576-0.795,0.377-2.257,1.658-2.257c3.27,0,6.838-0.67,8.846-3.449
	c1.213-0.149,3.641,2.577,4.525,3.449c0.182,1.442,0.762,5.838-0.168,7.02c0,4.007-0.869,5.358,1.869,8.744l0,0
	c-0.838,1.603-3.855,1.599-2.367,3.531c1.496,1.938,0.748,2.819,3.363,4.063c1.604,0.762,2.359,2.531,4.109,2.955
	c1.656,0.403,2.869-0.803,4.65-0.369c1.77,0.432,5.973,2.801,7.516,2.464c2.547-0.557,5.154,0.454,7.596-0.699
	c1.777-0.836,2.254-2.914,4.443-2.914c1.805,0,3.785,2.464,6.436,2.708c3.137,0.29,6.941-0.739,9.92-0.739
	c2.707,0.72,3.889,1.66,5.191-1.149c0.639-1.376,1.967,0.37,2.574,0.903c0.584,0.516,2.312,0.412,3.07,0.412
	c1.602,0,2.088-1.563,3.074-1.724c0.6-0.099,0.906,1.6,1.578,1.066c0.576-0.46-0.119-1.436,0.621-1.436
	c0.83,0,1.441,1.074,2.408,0.861c1.184-0.26,1.197-1.171,1.121-2.134c-0.102-1.274-1.385-2.468-1.867-3.737
	c-0.557-1.833,1.701-2.544,1.701-3.981c0-1.174-1.334-1.935-1.785-2.997c-1.16-2.734-3.41,0.355-5.979-0.862
	c-2.455-1.165-2.371-3.338-1.883-5.541l0,0l6.699-1.151c2.008-0.189,2.947-1.947,5.023-2.34c1.162-0.219,2.271,0.977,3.736,0.452
	c2.602-0.933,5.895-1.014,5.895-4.598c0-4.017,7.951-4.216,10.256-8.293c0.918-1.623,1.123-5.604,3.277-5.993
	c3.703-0.667,6.947,0.465,10.297-2.217c1.514-0.514,3.117-1.928,3.529-3.49c0.408-1.547,0.008-2.188,1.785-1.97
	c1.77,0.216,1.348-1.458,2.117-2.299c1.178-1.288,5.221-3.211,6.891-4.064c2.379-1.213,2.85-0.992,4.941,0.534
	c6.74,4.916,14.938,0.905,21.381-1.643c1.385-0.554,3.939-3.257,5.023-3.079c0.324,0.054,3.137,3.652,3.693,4.147
	c1.035,0.916-1.949,3.17-2.115,3.899c-0.463,2.032,1.6,5.374,2.242,1.561c0.201-1.201,0.414-2.792,1.826-1.396
	c0.994,0.983,1.801,1.052,2.699,1.889c0.996,0.931,2.297,5.839,1.285,6.856c-1.242,1.25-3.32,2.252-3.902,4.064
	c-0.697,2.173,0.732,3.154,2.781,2.462c4.445-1.498,2.791,0.979,6.395,1.766c1.521,0.333,2.734-0.493,4.234-0.493
	c1.439,0,2.746,1.428,3.945,2.095l2.863,1.314l0,0l-0.664,1.477c-0.625,1.855,1.072,2.861,1.162,4.722
	c0.104,2.131-1.65,1.14-2.822,2.134c-0.969,0.821-1.102,1.783-2.658,2.094c-1.586,0.316-1.885,1.492-2.947,2.587
	c-0.559,0.575-1.74,1.102-1.744,1.107c-0.252,0.75,0.191,2.369,0.498,3.08l5.148,7.922c0.955,1.469-4.09-0.537-5.396-1.106
	c-1.371-0.602-0.477-2.032-1.867-2.916c-3.133-1.99-2.879-0.774-6.354,0.206c-4.586,1.294-8.316,0.576-11.25,5.255
	c-0.9,1.437-3.58,0.589-3.654,2.504c-0.021,0.576-2.137,2.178-3.154,2.914l-4.65,3.368c-1.129,0.818-2.559-0.357-3.695,0.205
	c-1.299,0.642-2.119,3.464-2.615,4.762c-0.148,1.774,0.096,2.672,0.664,4.187c0.354,0.938,0.053,2.006,0.291,2.956
	c0.695,2.749,1.057,2.273-1.494,4.311c-1.148,0.917,0.949,3.49,0.166,4.392c-1.414,1.631-3.318,2.971-4.4,4.887
	c-0.785,1.386-1.227,0.297-2.449,0.901c-1.273,0.629-1.717,2.608-2.324,3.778c-1.328,2.438,0.193,3.02,1.949,3.939
	c1.633,0.857,0.883,2.959,0.498,4.436c-0.994,3.818-3.975,7.577-6.227,10.796c-1.691,2.416-1.986,5.013-3.238,7.637
	c-0.572,1.294-1.467,7.622-3.652,6.034c-1.357-0.985-2.561-3.044-4.486-2.094c-0.898,0.445-1.934-0.816-2.945-1.025
	c-1.898-0.395-3.953,1.897-5.148,0.327c-0.324-0.423-1.086-2.988-1.951-2.463c-0.959,0.583-0.17,2.633,0.041,3.408l1.078,3.981
	c1,3.689-1.203,7.981-1.203,11.495c0,1.029,0.119,6.132-2.449,5.09c-0.85-0.345-0.572-1.811-1.742-1.478
	c-0.807,0.229-0.271,3.102-0.209,3.899c-0.77,2.476-1.559,6.693,0.166,8.99c1.322,1.764,1.379,5.479-1.037,6.075
	c-1.615,0.4-1.242,2.594-2.533,3.614c-2.84,2.243-1.221,0.845-3.322-0.698c-0.307-0.225-2.115-1.972-2.199-1.972
	c-0.35,1.389-0.41,3.368-2.24,3.368l0,0l-0.334-5.913l-1.826-7.019c-0.324-1.245-0.309-4.066-0.996-5.05
	c-1.537-2.2-3.395-6.764-2.531-9.648c0.979-3.288-0.598-3.72-1.205-6.773c-0.232-1.168,0.232-2.414-0.207-3.283
	c-0.414,0-1.594,1.665-1.953,0.246c-1.088-0.269-1.549,1.436-2.242,1.478c-0.891,0.053-1.4-2.191-1.908-1.231
	c-1.148,2.171,1.43,4.262-1.289,6.568c-2.076,1.764-1.865,1.457-1.99,4.023c-0.139,2.832-0.174,4.324-3.365,4.926
	c-2.158,0.408-3.557-4.282-4.357-5.87c-0.932-0.184-0.809,1.264-0.623,1.888c0.117,0.396-0.197,2.958-0.746,2.465
	c-0.865-0.775-1.068-3.935-1.662-5.175c0-2.559-0.305-3.788-1.703-5.829c-1.314-1.92-1.545-3.095,0.416-4.433
	c0.973-0.664,0.58-2.311,0.58-3.326c0-2.041,1.551-1.519,2.742-2.216c0.934-0.549-0.023-1.265,0.125-1.848
	c1.105-0.273,2.668,0.368,3.859,0.368c1.684,0,1.387-1.425,1.951-2.544c0.537-1.061,0.904,0.796,1.455,1.067
	c1.846,0.911,0.262-2.109,0.828-2.259c0.822-0.215,1.236,1.131,1.412,1.684c0.869,2.713,1.852-3.344,1.91-3.572
	c0.121,0,0.15,0.018,0.248,0.042c0.066,0.256,0.439,0.48,0.666,0.369c0.426-0.209,0.162-0.95,0.125-1.314
	c0.143-1.271,1.867,0.082,2.49,0.082c0.248-0.984,0.486-4.034,1.244-4.639c0.918-0.729,1.842-3.509,1.578-4.68
	c-0.418-1.865,0.469-1.201,1.869-1.478c7.713-1.522-4.715-7.614-7.391-7.226c-3.924,0.57-9.484,2.355-12.994-0.041
	c-1.383-0.944-2.332,0.195-3.777-0.122c-0.988,0-2.156-0.122-3.115,0c-0.906,0.114-1.682,0.742-2.613,0.86
	c-1.842,0.234-3.512-0.72-5.482-0.533c-4.285,0.408-7.816,0.034-11.625-1.847c-2.047-1.011-5.684-0.482-5.479-3.53
	c2.348-4.313,0.441-5.814,1.203-9.688c0.768-3.891-1.318-3.169-2.988-6.281c-0.184-0.342-0.018-1.766-0.416-1.766
	c-0.689,0-2.074,4.308-2.074,5.009c-2.881,0.406-9.219-3.942-10.297-6.609c-0.543-1.347,1.15-3.333-0.955-3.407
	c-3.197-0.112,0.084,1.618,0.084,3.324c0,2.487-4.592-1.23-5.355-1.23c-2.889,0-1.447-1.046-2.367-1.273
	c-0.234-0.928-1.76-1.684-2.49-2.258c-0.992-0.781-1.225-2.494-2.242-1.314c-2.605,3.022,2.547,2.134,1.037,4.967
	c-0.262,0.495-3.412,3.331-3.861,3.53c-2.834,1.267-1.312,3.761-3.818,5.337c0.502,1.063-0.148,1.989,0.955,2.998
	c0.629,0.574,1.594,0.156,2.365,0.123c1.205-0.052,3.35,2.13,3.986,3.161c0.951,1.543,0.973,1.141,2.574,1.601
	c0.57,0.164,0.867,1.063,1.287,1.479c1.24,1.226,3.832-0.4,4.191,0.861c0.555,1.94-0.926,4.476,2.906,4.476
	c0,0.392-1.396,1.436-1.66,1.93c-0.633,1.18-0.82,0.333-1.66-0.082c-0.924-0.456-5.623-0.674-6.475-0.205
	c-1.686,0.92-0.654,2.396-1.371,3.818c-0.332,0.654-2.328,3.312-3.115,3.2c-0.227-1.131-0.926-1.235-1.826-1.107
	c-0.133,0.527-1.047,2.44-1.41,2.873l-1.619,1.877c0.414,1.033,0.451,2.504,1.162,3.501c0.34,0.478,0.855,0.813,1.438,1.091
	c1.488,0.712,3.43,1.061,4.084,2.522c0.248,0.555,0.516,1.068,0.793,1.538l1.904-0.02c1.062,0.438,2.01,0.534,3.156,0.534
	c1.371,0,1.309,2.117,1.203,3.079c-0.254,2.3,1.768,5.384-1.369,6.568c-0.854,0.321-1.215,0.987-1.787,1.683
	c0.082,1.428,0.367,3.436,1.121,4.599c0.561,0.86,1.236,0.748,1.91,1.271c1.742,1.356,1.215,2.952-0.082,4.558
	c-0.924,1.143,1.928,1.372,2.531,1.601c1.26,0.475,3.072,0.395,2.492,2.093c-0.461,1.352-2.844,2.914-1.205,4.27
	c1.621,1.342,1.678,5.487,0.707,7.227c0.332,1.044,0.441,2.202,0.873,3.243c0.355,0.867,0.125,1.98,0.455,2.832
	c0.582,1.495,1.869,2.996,1.869,4.679c0,1.077-0.717,1.045-0.166,2.259c0.543,1.198,0.727,2.447-0.873,2.711
	c0,0.85,0.541,1.577,0.541,2.298c-0.15,0.029-0.264,0.011-0.416,0l1.576,2.314c0.457,0.672,0.436,0.618-0.379,0.452
	c-1.602-0.326-3.385-1.163-4.146-1.494c-1.939-0.845-0.414,4.06-3.07,3.12c-1.342-0.474-3.748-0.158-4.484-0.696
	c-2.299-1.688-1.123-3.229-4.4,0.245c-0.977,1.033-1.248-1.989-1.371-2.38c-0.338-1.097-1.879-6.254-3.07-5.092l-3.031,2.955
	c-1.465,0.914-2.406,2.729-3.986,3.326c-1.223,0.462-2.732,0.624-3.859,1.19c-2.469,1.239-5.191,1.094-7.516,2.053
	c-1.809,0.747-2.852,2.604-4.484,3.572c-2.883,1.709-2.598,3.172-2.117,6.404c0.443,2.964,2.285,4.933,2.285,8.045
	c0,1.821-2.131,1.996-3.322,3.039c-0.812,0.71-1.049,1.96-1.951,2.503c-0.734,0.968-1.412,1.722-1.412,2.957
	c0,1.228-1.285,1.358-1.951,2.135c-1.023,1.195-2.605,4.959-4.773,4.063c-0.133-0.055,1.002,1.397-1.289,2.176
	c-2.67,0.91-5.719,1.229-8.26,2.299c-3.303,1.392-6.344,1.82-9.465,3.613c-3.045,1.747,3.713-3.492,3.527-3.859
	c-1.287-2.546-2.092-1.596-4.441-0.246c-0.893,0.512-4.691,5.878-4.691,6.65c0,1.953,2.998-0.658,3.793-1.437
	c0.291-0.284,0.209-0.176,0.082,0.107c-0.992,2.219-6.68,6.372-8.441,6.953c-2.152,2.127-2.902,4.627-4.691,6.855l-5.438,6.774
	c-1.291,1.606-1.182,1.009-2.492,1.807c-0.996,0.604-0.748,3.59-2.74,4.598l-9.342,4.721c-2.027,1.024-3.045,3.053-4.855,4.228
	c-2.459,3.647-4.18,5.706-8.055,8.006l-12.664,7.514c-1.155,0.685-3.992,5.161-3.735,6.485c0.226,1.172,1.284,2.508,1.038,3.611
	c-0.216,0.962-2.998,1.671-3.903,1.89c-1.097,1.326-2.142,3.066-3.736,3.981c-1.22,0.701-3.55-0.021-5.022,0.534
	c-1.096,0.415-1.502-0.634-2.408-0.411c-0.901,0.223-1.482,0.781-2.409,0.781c-2.019,0-2.14-2.099-3.569,0.944
	c-1.146,2.439-1.481,5.855-2.865,8.209c-0.676,1.153-2.471,0.967-3.28,2.177c-1.217,1.817-1.233,2.303-2.614-0.082
	c-1.393-2.4-8.428,0.861-10.214,1.642c-2.099,0.919-2.138,5.051-3.362,6.609c-4.129,7-2.286,13.027,0.291,20.034
	c0.951,2.589-1.287,3.565-1.287,5.788c0,1.493,0.579,3.282,0.083,4.681c0.188,0.743,1.725,3.696,2.159,4.27
	c-0.797,1.05-0.125,2.382-0.125,3.488c-0.646,0-1.507-1.523-1.786-1.969c-0.676-1.09-1.037,1.838-1.037,2.175
	c0,3.432,2.56,2.05,4.109,4.352c0.954,1.414,0.485,3.485,0.083,5.091c-0.852,3.414-0.176,7.058-1.908,10.222
	c-0.463,1.006-0.363,2.179-0.914,3.161c-0.517,0.923-1.082,1.489-1.744,2.298c-1.243,1.523-2.45,2.818-3.154,4.723
	c-1.124,3.035-3.778,8.112-3.778,11.248c0,1.481,0.907,2.457,1.079,3.818c0.127,1.128,0.831,2.303,0.831,3.366
	c0,0.605-0.639,1.873-0.166,2.34c1.359,1.345-0.045,3.436-0.374,4.802c-0.123,0.516-1.185,2.159-1.08,2.342
	c0.245,0.428,1.726-0.821,2.284-0.821v3.939c0,1.533-0.551,5.321,0.041,6.527c0.674,1.376-0.191,1.461-1.162,0.781
	c-0.662-0.463-2.822-0.609-3.819-0.986c-2.868-1.081-4.3,2.023-6.519,1.766c-2.401,1.741-0.32,3.593-1.536,5.624
	c-0.874,1.462-2.698,3.923-3.86,5.214c-2.427,2.696-3.717,8.28,1.244,9.032c1.671,0.252,4.52-0.848,5.149,1.641
	c-2.358-0.582-5.039-1.807-7.681-1.065l-11.417,3.2c-1.419,0.398-2.745,1.835-4.069,2.589c-1.342,1.705-1.108,6.817-1.742,9.071
	c-0.626,2.219-5.385,6.445-7.64,7.02c-0.813,0.207-1.968,0.266-2.616,0.822c-2.098,1.794-3.5,1.544-5.854,0.615
	c-3.15-1.244-7.039-4.472-8.717-7.308c-1.304-0.858-3.206-3.877-4.07-5.255c-0.882-1.408-2.388-1.914-3.155-3.119
	c-0.636-0.999,0.9-1.116,1.453-1.562c1.265-1.016-0.672-1.021-1.453-0.573c-0.718,0.409-1.608-3.624-2.408-4.476
	c-1.867-1.99-2.24-5.45-2.614-7.964c-0.097-0.639-0.581-3.737-0.124-3.737c0,1.038,1.349,2.072,0.954,3.245
	c-0.749,2.22,1.691,2.344,1.618,1.642c-0.111-1.081-0.326-2.25-0.581-3.366c-1.087-3.493-3.21-7.251-4.815-10.55
	c-1.672-3.438-2.307-7.351-4.026-10.756c-1.001-1.981-2.268-3.635-2.574-5.911c-0.219-1.621-0.685-1.662-1.452-3.079
	c-0.221-2.811-2.637-5.485-3.613-8.087c-1.064-2.838-3.551-4.234-4.732-6.611c-1.288-2.594,0.192-1.642-2.284-2.668
	c-1.399-0.581-2.985-3.828-3.403-5.254c-0.768-2.614-2.936-6.837-4.566-8.95l-2.74-11.577c-0.775-3.276-0.708-8.007-2.16-11.002
	c-1-2.064-2.877-4.486-3.57-6.486c0-1.562-1.328-3.078-1.328-4.721c0-1.316,0.234-2.307-0.457-3.53
	c-1.271-2.257-1.271-4.038-3.943-5.215c-1.355-0.597-1.279-2.712,0.082-3.161c-0.066-0.266-0.883,0.058-1.037,0.124
	c-0.371,0.162-0.92-0.003-1.204-0.205c-0.8-0.572-0.557-1.974-1.329-2.545c-1.895-1.406-1.493-3.128-1.493-5.42
	c0-1.491-2.658-2.109-2.658-2.421c3.031-0.75,1.083-0.449-0.456-1.972c-1.15-1.949-1.799-3.488-2.574-5.583
	c-0.799-2.161-1.188-2.281-2.698-4.022c-0.661-0.764-0.954-2.034-1.163-2.998l-3.237-14.983c-1.136-4.775-2.704-9.064-2.989-13.999
	c-0.166-2.846-0.59-8.63-2.158-11.001c-0.495-0.748-1.521-2.39-1.62-3.203c-0.323-0.88-0.604-2.476,0.623-2.71
	c0.819-0.155-1.021-1.084-1.162-1.602c-0.366-1.337-2.472-4.146,0.581-4.146c-0.158-0.47-1.033-0.745-1.246-1.354
	c-0.262-0.753-0.381-1.562-0.747-2.299c-1.128-2.268-0.651-1.765,1.827-1.765c1.288,0,0.014-1.474-0.457-1.848
	c-1.578-1.262,0.918-1.824,1.869-2.587c2.039-1.638-1.121,0.236-1.121-2.463c0-2.638-1.852,5.461-3.406,1.972
	c-0.591-1.332,0.211-2.708-0.081-4.065c-0.365-1.694-0.669-2.094,1.618-2.094c1.024,0-0.464-0.947-0.623-1.026
	c-0.541-0.249-1.667,0.089-1.95-0.533c-0.203-0.445,0.021-0.664,0.083-1.067c0.108-0.708,1.221-1.012,1.742-1.354
	c0.285-0.188,0.947-0.386,1.122-0.616c-0.118-0.158-0.254-0.478-0.374-0.657c-0.076,0.019-0.064,0.008-0.083,0.082
	c-1.708,0.676-2.989,1.175-3.279-1.066c-0.21-1.614-0.173-3.208-0.333-4.846c-0.132-1.369-0.385-2.705-0.332-4.104
	c0.07-1.807,1.084-3.32,1.744-4.926c0.87-2.581,1.926-4.571,2.034-7.39c0.059-1.515,1.748-5.261,0.788-5.83
	c-2.01-1.19,0.068-1.997-0.83-3.406c-0.468-0.737-0.711-1.173-0.996-1.972c-0.604-1.694-4.991-0.748-2.573-3.285
	c1.017-1.067,0.936-0.572-0.042-2.052c-0.968-1.463-1.01-1.426,0.664-2.462c0.363-0.226-0.334-1.235-0.415-1.521
	c0.414-0.666,0.49-1.529,1.08-2.052c0.166-0.147,1.661-0.569,1.369-0.657c-1.558-0.46-2.82-0.895-4.608-0.739
	c-1.969,0.172-0.26-0.296,0.332-1.108c0.851-1.165,0.678-2.352,1.246-3.529c0.151-0.315,0.854-1.631,0.748-1.643
	c-0.6-0.066-2.467,1.196-3.24,1.396c-2.049,0.528-0.337-4.814,0.499-5.583c1.163-1.068,2.924-0.228,3.986-0.987
	c0.204-0.146,0.342-0.424,0.511-0.635c0.238-0.299,0.613-0.311-0.091-0.245c-1.046,0.095-2.054,0.443-3.077-0.064
	c-1.715-0.846-2.714,0.572-4.109,1.15c-1.99,0.825-1.506-5.833-2.285-3.817c-0.723,1.874,0.857,2.697,0.042,4.311
	c-1.479,2.925-2.008,5.255-2.821,8.415c0.799,3.008,2.228,3.688,0.455,6.651c-0.589,0.984-3.15,4.599-2.947,5.5
	c0.398,1.78-0.508,2.254-2.283,2.793c-1.894,0.571-5.145,3.262-6.893,2.996c-1.825-0.278-2.058,0.613-3.361,1.56
	c-8.133,2.992-13.148,7.76-20.635,1.027l-12.869-11.577l-8.677-8.499c-2.106-2.403-4.896-4.354-6.519-7.224
	c-0.739-1.31-3.303-4.105-2.242-5.624c0.202-0.29,1.326-1.971,1.536-1.971c0,0.279-0.19,1.536-0.041,1.684
	c0.339,0.334,1.665,0.363,2.118,0.246c0.457-0.121,0.684-0.652,0.871-0.699c0,1.025-1.1,1.994-0.457,2.874
	c0.637,0.873,2.349,0.163,3.072-0.247c2.062-0.51,3.451-2.108,5.271-1.354c1.928,0.799,2.09-2.455,3.322-1.725
	c1.32,0.781,1.779,0.461,2.947-0.451c1.703-1.332,1.57-2.123,3.82-1.807c2.355,0.332,3.198-2.958,4.608-4.353
	c0.799-0.79,0.811-2.815,1.909-3.201c0.727-0.257,1.494,0.47,1.701-0.452c0.16-0.707,0.023-1.32,0.333-2.011
	c0.206-0.459,0.872-0.958,0.872-1.437c-2.089,0-4.188,0.152-5.521-1.643c-1.285-1.729-1.742,2.503-1.785,3.243
	c-0.079,1.354-3.463,1.454-4.359,1.847c-2.402,0.549-3.325,2.139-5.396,2.956c-1.588,0.627-4.124-0.468-5.729-0.78
	c-3.651-0.711-8.385-3.036-11.376-5.171c-1.822-1.303-3.162-2.896-5.23-4.024c-0.689-0.375,1.73-0.824,1.037-2.011
	c-2.14-3.667-5.521-4.763-1.494-8.745c0.16-0.147,4.788-3.243,3.985-3.243c-1.45,0-3.515,1.033-4.732,0.862
	c0-0.495,0.745-2.309,0.456-2.381c-1.123-0.284-1.207,1.65-1.411,2.258c-0.568,1.689-2.013,1.552-2.284,3.571
	c-0.195,1.466-1.973,2.032-3.237,1.354c-0.282-0.149-0.529-0.315-0.749-0.49v-0.001c0.884-2.82,2.102-7.62,5.814-8.212
	c2.908-0.465,4.239,2.013,5.729-1.107c0.423-0.887,0.373-5.462,0.996-5.462c0.621,2.459,1.648,0.101,3.279,1.068
	c1.661,0.985,2.879-0.819,4.816-0.329c2.441,0.619,7.066-2.212,9.176,0.287c2.123,2.519,7.059,2.655,8.843-0.369
	c2.872-1.689,5.854-2.094,8.759-3.365c0.775-0.34,1.217,2.749,1.994,3.531c1.136,1.142,3.49,1.146,4.524-0.248
	c0.97-1.304,0.604-1.755,2.118-2.791c3.035-2.079-0.386-3.425,1.991-5.378c2.844-2.334-2.909-6.021-3.154-8.416
	c-0.153-1.496-0.204-2.423-0.664-3.817c-0.509-1.544-2.618-3.079-3.362-4.763c-0.66-1.902-0.463-4.094-0.789-6.076
	c-0.4-2.429-1.549-0.391-2.907-0.205c-3.413,0.468-5.214-1.556-6.851-4.188c-0.801-1.289-2.873-3.557-1.783-5.171
	c1.834-2.723,2.812-5.483,2.157-8.869c-0.766-3.967-5.909-1.869-8.8-3.12c-0.912-0.489-5.028-3.106-4.982-3.9
	c0.241-4.165,1.684-9.428,5.189-12.028c1.943-1.442,3.436-2.657,4.649-4.845c1.606-2.894,2.017-5.902,4.399-8.415
	c6.956-4.729,6.348-3.141,10.215,2.257c3.403,4.753,6.301,0.521,10.503-0.861c3.444-1.134,7.169-0.464,10.628-1.561
	c3.871-1.227,2.131-1.31,3.115-4.188c0.758-2.218,4.895-5.062,6.559-7.06c3.278-3.939,0.988-7.205,6.766-10.634
	c2.146-1.626,4.303-2.711,6.851-3.283c1.905-0.428,2.052-1.744,2.741-3.284c0.848-1.896,2.448-4.772,3.902-6.281
	c2.277-2.364,2.539-6.015,2.947-9.114c0.394-1.31,0.967-3.607,2.199-4.31c1.123-0.639,2.158-1.026,3.488-1.026
	c1.906,0,3.957-0.575,5.48-1.725c1.732-1.306,0.625-2.845,0.207-4.392l-1.006-2.182c0.31-0.119,0.671-0.304,1.006-0.569
	c0.395-0.311,1.816-1.899,1.91-2.093c0.359-0.746,2.368-2.408,3.072-2.833c2.664-1.608,3.368-6.06,6.891-7.594
	c1.315-0.574,0.627-2.587,1.828-2.587c0.355,0,1.95,1.656,1.95-0.041c0.116-0.691-0.1-0.322-0.165-0.78
	c-0.691-0.17-2.826-0.761-3.197-1.355c-0.945-1.511,0.771-4.65,1.371-6.199c0.457-1.186,0.369-2.556,0.124-3.776
	c-0.138-0.685-0.464-1.261-0.623-1.889c-0.304-1.189-0.331-2.001-0.352-3.228c2.163-2.078,4.279-3.962,4.669-3.751
	c1.352,0.733,1.941-2.029,3.154-2.462c1.403-0.499,2.819-0.044,4.152-0.534c1.423-0.522,3.648-1.907,5.543-3.246l-1.391-2.788
	c-0.539-0.661-4.625-3.925-5.189-3.981c-0.8-0.081-1.114,0.982-1.994,1.189c-1.001,0.236-1.057-0.845-1.742-1.149
	c-0.701-0.312-3.381,1.186-3.904,0.123c-0.377-0.769-1.014-5.25-1.078-6.322c-0.053-0.849,0.392-2.273-0.789-2.217
	c-1.2,0.057-2.278,1.869-3.197,1.642l-1.12,0.493c-1.394,0-1.807-1.145-2.74-1.848c-1.069-0.806-2.22-1.412-3.363-2.094
	c-1.005-0.6-2.13-0.913-3.112-1.559c-0.635-0.418-1.041-0.937-1.785-1.15c-1.361-1.076-2.623-1.271-4.111-1.93
	c-1.383-0.612-0.268-1.866-0.58-2.873c-0.226-0.724-0.643-1.334-0.831-2.094c-0.312-1.248,0.263-2.081,0.623-3.244
	c0.63-2.033-0.272-2.369-0.789-4.104c-0.581-1.954,0.155-3.362,0.083-5.172c-0.039-0.978-0.609-2.317-1.038-3.202
	c-0.491-1.013-0.933-3.555-1.163-4.722c-1.022-2.783-2.4-5.794-0.83-8.662c1.389-2.535,4.053-1.438,5.523-4.188
	c1.08-2.021,1.05-2.435,3.361-3.407c2.77-1.167,3.25-2.593,3.736-5.337c0.377-2.122,0.957-2.045-1.203-3.244
	c-1.841-1.617-6.565-0.503-5.895-3.817c0.406-2.018,2.979-4.576,0.248-5.049c-5.924-1.028-10.633-1.79-12.869-8.047
	c-0.471-1.315-2.961,0.682-3.904,0.575c-0.812-0.091-1.466-0.821-2.157-0.821c-1.925,0-2.833,1.521-4.443-0.165
	c-1.556-1.628-0.584-2.895-0.871-4.721c-1.188-4.702,1.68-3.821,4.317-5.666c2.365-1.653,2.646-4.236,4.982-5.87
	c1.746-1.22,1.341-2.329,1.868-4.022c0.101-0.325,5.935-1.348,6.933-1.519c1.791-0.307,2.164,0.843,3.778,0.903
	c0.563,0.021,4.153-0.174,4.483-0.328c1.463-0.684-0.459-2.676-1.309-3.005l-0.733-0.637c-1.673-1.451-1.096-0.812,0.61-0.948
	c0.947-0.074,1.833-0.168,2.843,0.689c2.067,1.754,4.956,0.615,6.892-0.779c2.34-1.686,3.783-2.286,6.52-2.998l0,0l0.709,0.926
	c0.484-0.372,1.396-3.975,2.279-3.103c0.459,0.455-0.008,1.766,1.162,1.766c0.753,0,1.201-0.546,1.785-0.739
	c0,1.293,0.703,3.247,2.407,2.833c1.999-0.486,1.567-2.264,3.987-1.067c1.475,0.729,2.636,0.354,4.192,0.698
	c1.05,0.232,1.45,4.988,1.618,6.158c0.096,0.664,3.562-1.374,4.899-0.822c1.166,0.483,3.159,0.9,3.902,2.013
	c1.18,1.765,1.669,3.558,2.782,5.419c1.269,2.121-0.785,2.552,0.414,4.926c0.473,0.846-2.389,2.91-1.203,3.818l3.32,2.545
	c1.992,1.525-0.893,3.537,3.281,3.695c2.129,0.081,3.791-1.191,5.646-1.191l0.042,0.041c0,2.448,1.123,2.943,2.865,4.435
	c1.289,1.105,4.316,1.393,4.981,2.175c1.482,1.75,5.799,2.628,7.846,2.628c1.104,0,1.877,1.437,3.571,1.437
	c1.334,0,3.886-0.375,5.188-0.698c0.178-0.134,0.146-0.287,0.332-0.164c1.042-1.159,2.997,1.635,4.027,0.533
	c0.596-0.637,0.311-3.112,1.785-2.792c2.368,0.516,4.044-2.302,6.436-3.12c2.131-0.729,3.949-2.197,5.604-3.654
	c2.844-2.501,6.105-1.782,9.756-1.969c1.684-0.088,3.656-1.184,5.066-0.083c1.535,1.2,2.885,2.682,4.483,3.776
	c1.083,1.276,3.716,3.333,5.313,3.859c2.218,0.73,3.262,1.831,3.986,3.982c0.77,2.284,1.54,2.021,3.114,0.534
	c0.582-0.551,1.287-2.471,1.949-0.904c0.96,2.262,3.174,0.5,0.914,3.654c-0.844,1.181-0.499,2.248-0.789,3.613
	c-0.223,1.053-1.185,1.435-1.452,2.298c-0.495,1.591-0.265,3.354-0.83,5.008c-0.396,1.16-2.885,4.127-2.191,5.232
	c0.031,2.169-2.522,0.627-4.036,1.624c-0.304,0.199-2.267,1.999-2.325,2.3c-0.472,2.428-0.242,1.86-2.656,2.258
	c-2.32,0.38-2.488-0.539-1.537,1.436c1.091,2.262-0.904,4.332-1.744,6.568c-1.197,3.196-1.411,1.965-3.943,2.094
	c-1.6,0.081-1.983,1.39-3.902,0.944c-1.454-0.337-3.755-0.75-3.612,1.724c0.06,1.02,3.616,4.898,2.958,5.878
	c0.733,2.694-3,0.149-3,2.538c0,0.823,0.621,1.498,0.998,2.176c0.31,0.559-0.174,1.362,0.207,1.97
	c1.246,1.991,2.119,5.151,5.064,4.681c2.315-0.37,4.236-0.073,3.197,2.832c-1.169,3.27,1.309,7.121,3.529,9.484
	c3.068,3.267-5.911,4.32-7.617,4.804c-1.282,1.817,0.063,2.473-2.389,3.078c-3.002,0.742-3.494,0.101-5.604-2.176
	c-0.399-0.43-0.775-4.585-0.997-5.46h-0.083c-0.069-0.206-0.492,0.828-0.582,0.944c-1.002,1.322-2.688,1.075-4.151,1.437
	c0,0.867-1.453,1.043-1.453,2.094c0,0.787,0.997,1.393,0.997,2.421c0,1.403-0.406,4.455,0.662,5.419
	c2.162,1.95,4.734,3.285,4.734,6.651c0,1.448-1.44,2.561-0.664,4.064c0.618,1.197,3.189,1.875,2.407,3.612
	c-0.405,0.386-1.184,0.248-1.328,0.822c-0.874,0.287,0.105,3.641,0.208,4.351c1.449,0.956,1.482,4.459,3.487,0.904
	c3.055-5.421,5.165,0.687,7.224,3.694c0.726,1.062,4.822,4.6,6.062,4.846c1.869,0.368,4.175-2.39,6.228,0.123
	c0.815,0.999,1.234,2.741,2.115,3.489c2.023,1.712,4.112-1.243,3.946,2.751c-0.125,2.937,2.526,4.224,5.313,4.475
	c1.36,0.856,3.372-0.014,4.317,1.684c1.054,1.892,2.328,2.512,4.484,2.996c2.209,0.496,2.703,0.626,3.736,2.669l0,0V181.906z"/>
</svg>
