<?xml version="1.0" encoding="utf-8"?>
<!-- Generator: Adobe Illustrator 16.0.4, SVG Export Plug-In . SVG Version: 6.00 Build 0)  -->
<!DOCTYPE svg PUBLIC "-//W3C//DTD SVG 1.1//EN" "http://www.w3.org/Graphics/SVG/1.1/DTD/svg11.dtd">
<svg version="1.1" id="Layer_1" xmlns="http://www.w3.org/2000/svg" xmlns:xlink="http://www.w3.org/1999/xlink" x="0px" y="0px"
	 width="620.969px" height="664.467px" viewBox="0 0 620.969 664.467" enable-background="new 0 0 620.969 664.467"
	 xml:space="preserve">
<path fill="none" stroke="#010101" stroke-width="2.0119" d="M275.466,180.986c-1.237,0.611-2.729-0.288-4.01-0.288l-0.042,0.041
	v0.083c-0.651,0.214-0.425,2.589-2.381,3.221c-0.943,0.307-0.29,1.182-1.126,1.693c-0.684,0.418-1.446,0.476-2.172,0.579
	c-0.189,1.312-1.291,3.765-2.839,3.882c-1.565,0.119-1.772,1.375-1.505,2.642c0.408,1.923-0.998,3.796-2.13,5.41
	c-1.53,2.185,1.189,2.691-0.208,5.45c-0.237,2.741,0.402,1.453-2.631,3.801c-0.125,1.362-2.377,3.253-1.544,3.965l6.766,5.782
	c0.321,0.274,2.647,0.958,2.755,0.579c0.251-0.881-0.706-2.64,0.584-1.735c3.075,2.153,7.364,6.473,11.192,7.103
	c2.785,0.458,1.852,1.11,3.384,3.222c1.395,1.924,4.411,3.087,6.431,4.419c2.205,1.147,3.836,2.994,5.847,4.17
	c2.159,1.264,1.587-2.928,3.55-1.815c1.907,1.079,7.659,6.653,9.104,6.443c2.686-0.393,4.685-3.391,5.43,0.948
	c0.537,3.124,1.699,2.033,3.509,2.479c1.38,0.342,0.449,1.638,2.756,1.239c3.319-0.576,2.592,0.838,4.594,2.437
	c3.157,2.521,2.252-2.257,2.464-3.097l4.303,0.083c1.815,0.035,2.214,1.801,3.923,1.941c1.529-0.11,1.423-1.684,3.301-1.073
	c1.128,0.367,2.354-0.08,2.59-1.364c0.191-1.054,3.648,2.254,4.551,2.726c1.551,0.812,4.015,1.082,5.764,1.279
	c2.679,0.302,2.815,2.642,1.963,4.833c-0.811,2.081,2.767,2.455,4.426,3.139c2.11,0.296,2.38,2.726,3.299,2.726
	c1.348,0,1.693-1.038,2.549,0.866c2.387,5.315,10.403-5.391,11.275,1.859c0.787,6.544,4.714,1.124,7.518,2.354
	c3.099,1.361,6.008,0.289,9.354,2.271c2.462,1.459,3.168,2.62,6.142,1.488c1.036-0.397,3.225-2.522,3.968-2.479
	c0.416,0.025,0.713,2.032,0.874,2.479c0.485,1.325,2.92,0.573,4.095,1.734c1.847,1.827,1.737-1.239,3.55-1.239
	c2.049-0.12,1.406,0.532,2.841,1.32c0.967,0.535,1.412-0.357,2.128-0.7c0.727-0.351,2.095,0.583,2.548-0.372
	c1.121-2.362,3.047,3.086,5.428,0.866c0.936-0.872,0.073-3.651,0.794-4.997c1.359-2.535,1.668-2.321,0.627-5.369
	c-1.169-3.421-3.639-4.627-2.716-8.508c0.362-1.854,0.069-3.1,0-4.873c-0.09-2.351,1.19-4.005,1.922-6.071
	c0.297-0.833,0.994-1.835,1.043-2.684c0.058-1.002-0.509-0.902-1.21-1.364l0,0c0.58-0.799,0.379-2.27,1.668-2.27
	c3.289,0,6.879-0.674,8.898-3.47c1.221-0.149,3.663,2.592,4.553,3.47c0.183,1.451,0.767,5.873-0.169,7.062
	c0,4.03-0.875,5.389,1.88,8.796l0,0c-0.844,1.612-3.878,1.608-2.381,3.552c1.505,1.95,0.752,2.836,3.382,4.087
	c1.614,0.766,2.374,2.546,4.134,2.973c1.667,0.405,2.887-0.809,4.679-0.371c1.78,0.434,6.008,2.817,7.561,2.479
	c2.562-0.56,5.185,0.457,7.641-0.704c1.788-0.841,2.268-2.931,4.47-2.931c1.815,0,3.808,2.479,6.475,2.724
	c3.156,0.292,6.982-0.743,9.979-0.743c2.724,0.724,3.912,1.669,5.222-1.156c0.644-1.384,1.979,0.372,2.59,0.909
	c0.587,0.519,2.325,0.415,3.088,0.415c1.611,0,2.101-1.573,3.092-1.735c0.604-0.099,0.912,1.61,1.588,1.073
	c0.579-0.463-0.12-1.445,0.625-1.445c0.835,0,1.449,1.081,2.422,0.867c1.191-0.261,1.205-1.178,1.128-2.146
	c-0.104-1.282-1.393-2.483-1.878-3.76c-0.561-1.844,1.711-2.559,1.711-4.005c0-1.181-1.342-1.946-1.796-3.014
	c-1.167-2.751-3.431,0.356-6.014-0.868c-2.47-1.172-2.386-3.358-1.896-5.574l0,0l6.739-1.159c2.02-0.189,2.965-1.958,5.054-2.354
	c1.169-0.22,2.284,0.983,3.758,0.455c2.618-0.938,5.931-1.02,5.931-4.625c0-4.042,7.998-4.242,10.316-8.342
	c0.924-1.633,1.13-5.638,3.297-6.029c3.725-0.671,6.988,0.467,10.358-2.23c1.522-0.518,3.135-1.94,3.55-3.511
	c0.41-1.556,0.009-2.202,1.796-1.982c1.78,0.218,1.356-1.466,2.13-2.312c1.185-1.296,5.252-3.23,6.932-4.088
	c2.393-1.22,2.867-0.998,4.971,0.538c6.78,4.945,15.026,0.91,21.508-1.653c1.394-0.557,3.964-3.276,5.054-3.098
	c0.325,0.055,3.155,3.674,3.715,4.172c1.041,0.921-1.96,3.188-2.127,3.921c-0.467,2.044,1.609,5.406,2.255,1.571
	c0.202-1.208,0.416-2.809,1.837-1.405c1,0.989,1.812,1.059,2.715,1.901c1.002,0.937,2.311,5.874,1.293,6.896
	c-1.25,1.257-3.34,2.266-3.926,4.089c-0.701,2.186,0.737,3.172,2.798,2.477c4.471-1.507,2.808,0.984,6.433,1.776
	c1.53,0.335,2.751-0.496,4.26-0.496c1.447,0,2.763,1.438,3.969,2.108l2.88,1.321l0,0l-0.668,1.486
	c-0.629,1.866,1.078,2.877,1.169,4.75c0.104,2.144-1.659,1.146-2.84,2.146c-0.974,0.826-1.107,1.794-2.673,2.106
	c-1.595,0.318-1.896,1.501-2.965,2.604c-0.562,0.578-1.75,1.108-1.754,1.113c-0.254,0.754,0.192,2.383,0.501,3.098l5.179,7.969
	c0.96,1.478-4.115-0.541-5.429-1.112c-1.379-0.606-0.479-2.044-1.878-2.934c-3.151-2.002-2.896-0.779-6.392,0.207
	c-4.613,1.302-8.366,0.579-11.317,5.287c-0.905,1.445-3.602,0.592-3.676,2.519c-0.021,0.58-2.149,2.191-3.173,2.932l-4.678,3.388
	c-1.136,0.822-2.575-0.359-3.717,0.206c-1.307,0.646-2.132,3.485-2.631,4.791c-0.148,1.784,0.097,2.688,0.668,4.211
	c0.356,0.944,0.053,2.018,0.292,2.974c0.7,2.766,1.064,2.287-1.503,4.337c-1.154,0.922,0.955,3.51,0.167,4.417
	c-1.422,1.641-3.337,2.988-4.426,4.916c-0.789,1.395-1.234,0.3-2.463,0.907c-1.281,0.633-1.728,2.624-2.339,3.801
	c-1.336,2.452,0.194,3.038,1.961,3.962c1.643,0.863,0.889,2.977,0.501,4.463c-1,3.84-3.998,7.622-6.265,10.86
	c-1.7,2.431-1.997,5.043-3.257,7.683c-0.575,1.301-1.475,7.667-3.674,6.07c-1.364-0.991-2.576-3.062-4.512-2.107
	c-0.904,0.448-1.946-0.82-2.963-1.031c-1.91-0.398-3.977,1.908-5.18,0.329c-0.326-0.425-1.092-3.006-1.963-2.478
	c-0.965,0.586-0.171,2.648,0.042,3.428l1.084,4.005c1.006,3.71-1.21,8.028-1.21,11.563c0,1.035,0.12,6.169-2.463,5.12
	c-0.855-0.347-0.576-1.822-1.753-1.487c-0.812,0.231-0.272,3.121-0.21,3.923c-0.775,2.49-1.569,6.733,0.167,9.044
	c1.33,1.774,1.387,5.512-1.043,6.111c-1.625,0.402-1.25,2.609-2.549,3.635c-2.856,2.257-1.228,0.852-3.342-0.701
	c-0.309-0.227-2.127-1.984-2.212-1.984c-0.353,1.398-0.412,3.389-2.253,3.389l0,0l-0.336-5.948l-1.837-7.061
	c-0.326-1.253-0.311-4.091-1.002-5.08c-1.547-2.214-3.415-6.805-2.547-9.706c0.985-3.308-0.602-3.742-1.212-6.814
	c-0.233-1.175,0.233-2.428-0.208-3.302c-0.416,0-1.604,1.675-1.965,0.247c-1.094-0.27-1.559,1.445-2.255,1.487
	c-0.897,0.053-1.409-2.205-1.92-1.239c-1.154,2.185,1.438,4.288-1.297,6.608c-2.088,1.773-1.876,1.465-2.002,4.047
	c-0.14,2.849-0.175,4.35-3.384,4.955c-2.172,0.411-3.579-4.308-4.384-5.905c-0.938-0.185-0.813,1.271-0.627,1.899
	c0.118,0.398-0.198,2.976-0.75,2.479c-0.871-0.779-1.074-3.958-1.673-5.206c0-2.573-0.306-3.811-1.713-5.863
	c-1.321-1.932-1.554-3.113,0.419-4.459c0.979-0.668,0.583-2.325,0.583-3.346c0-2.053,1.562-1.528,2.759-2.229
	c0.94-0.552-0.022-1.272,0.126-1.859c1.111-0.275,2.684,0.37,3.882,0.37c1.693,0,1.396-1.434,1.963-2.56
	c0.54-1.066,0.909,0.801,1.464,1.074c1.856,0.917,0.264-2.122,0.832-2.272c0.827-0.216,1.244,1.138,1.421,1.693
	c0.874,2.729,1.863-3.363,1.921-3.593c0.122,0,0.151,0.019,0.25,0.042c0.066,0.258,0.442,0.483,0.67,0.372
	c0.428-0.21,0.163-0.956,0.126-1.321c0.145-1.279,1.878,0.083,2.505,0.083c0.249-0.99,0.488-4.058,1.252-4.667
	c0.923-0.733,1.853-3.53,1.586-4.708c-0.42-1.875,0.473-1.208,1.881-1.486c7.759-1.532-4.743-7.66-7.436-7.27
	c-3.947,0.574-9.541,2.369-13.071-0.042c-1.391-0.949-2.346,0.197-3.8-0.123c-0.993,0-2.168-0.122-3.133,0
	c-0.912,0.115-1.692,0.747-2.629,0.865c-1.853,0.236-3.533-0.724-5.516-0.536c-4.31,0.411-7.861,0.034-11.694-1.858
	c-2.059-1.017-5.717-0.485-5.511-3.551c2.361-4.338,0.444-5.848,1.21-9.745c0.772-3.915-1.326-3.188-3.006-6.319
	c-0.185-0.344-0.018-1.776-0.418-1.776c-0.693,0-2.087,4.333-2.087,5.039c-2.898,0.408-9.273-3.966-10.358-6.649
	c-0.546-1.355,1.157-3.353-0.961-3.428c-3.215-0.112,0.085,1.628,0.085,3.344c0,2.502-4.619-1.237-5.387-1.237
	c-2.907,0-1.456-1.052-2.382-1.281c-0.235-0.933-1.77-1.693-2.505-2.271c-0.998-0.786-1.231-2.509-2.255-1.322
	c-2.62,3.04,2.562,2.147,1.043,4.997c-0.264,0.498-3.433,3.351-3.884,3.55c-2.851,1.275-1.32,3.784-3.841,5.369
	c0.505,1.07-0.149,2.001,0.961,3.016c0.633,0.578,1.604,0.157,2.379,0.124c1.213-0.052,3.37,2.143,4.01,3.18
	c0.956,1.552,0.979,1.148,2.589,1.611c0.574,0.165,0.873,1.069,1.295,1.487c1.248,1.234,3.855-0.402,4.217,0.866
	c0.558,1.951-0.933,4.502,2.923,4.502c0,0.395-1.404,1.445-1.67,1.942c-0.637,1.187-0.825,0.335-1.67-0.083
	c-0.93-0.459-5.656-0.679-6.514-0.207c-1.696,0.925-0.657,2.41-1.38,3.84c-0.334,0.658-2.342,3.332-3.133,3.219
	c-0.229-1.138-0.932-1.242-1.837-1.113c-0.134,0.53-1.053,2.454-1.418,2.891l-1.629,1.888c0.416,1.039,0.453,2.518,1.169,3.521
	c0.342,0.481,0.86,0.818,1.446,1.099c1.497,0.716,3.45,1.067,4.108,2.536c0.249,0.558,0.52,1.075,0.798,1.547l1.915-0.02
	c1.068,0.44,2.021,0.536,3.175,0.536c1.38,0,1.316,2.13,1.211,3.098c-0.256,2.313,1.777,5.416-1.378,6.607
	c-0.858,0.323-1.222,0.993-1.798,1.693c0.083,1.437,0.37,3.457,1.128,4.627c0.564,0.865,1.244,0.752,1.922,1.278
	c1.752,1.365,1.222,2.97-0.083,4.586c-0.929,1.149,1.939,1.38,2.547,1.61c1.267,0.478,3.09,0.396,2.506,2.105
	c-0.464,1.36-2.86,2.931-1.211,4.296c1.63,1.35,1.688,5.519,0.711,7.27c0.334,1.05,0.443,2.215,0.877,3.263
	c0.358,0.872,0.126,1.991,0.458,2.849c0.586,1.504,1.881,3.014,1.881,4.707c0,1.083-0.722,1.051-0.168,2.271
	c0.547,1.206,0.732,2.462-0.878,2.729c0,0.854,0.544,1.586,0.544,2.312c-0.149,0.028-0.265,0.011-0.418,0l1.586,2.327
	c0.459,0.676,0.438,0.622-0.382,0.455c-1.611-0.328-3.404-1.17-4.17-1.503c-1.951-0.85-0.417,4.085-3.089,3.139
	c-1.35-0.477-3.771-0.159-4.511-0.7c-2.312-1.698-1.13-3.248-4.426,0.246c-0.983,1.039-1.256-2.001-1.379-2.394
	c-0.341-1.104-1.891-6.292-3.089-5.123l-3.05,2.973c-1.474,0.92-2.419,2.745-4.009,3.347c-1.231,0.465-2.749,0.628-3.883,1.196
	c-2.483,1.247-5.222,1.101-7.561,2.065c-1.82,0.751-2.869,2.62-4.511,3.593c-2.9,1.72-2.613,3.191-2.13,6.443
	c0.446,2.981,2.299,4.962,2.299,8.093c0,1.832-2.144,2.008-3.341,3.057c-0.817,0.715-1.057,1.972-1.963,2.519
	c-0.739,0.973-1.421,1.731-1.421,2.975c0,1.234-1.293,1.365-1.963,2.147c-1.029,1.202-2.62,4.988-4.802,4.087
	c-0.134-0.056,1.009,1.405-1.296,2.189c-2.687,0.915-5.754,1.235-8.31,2.312c-3.322,1.399-6.382,1.831-9.521,3.635
	c-3.063,1.758,3.735-3.513,3.549-3.883c-1.295-2.561-2.104-1.604-4.469-0.247c-0.897,0.516-4.718,5.913-4.718,6.689
	c0,1.965,3.016-0.662,3.815-1.445c0.293-0.285,0.21-0.177,0.082,0.107c-0.998,2.232-6.72,6.41-8.491,6.995
	c-2.165,2.14-2.92,4.654-4.72,6.896l-5.47,6.814c-1.299,1.615-1.188,1.015-2.507,1.817c-1.002,0.608-0.753,3.611-2.757,4.626
	l-9.397,4.749c-2.039,1.029-3.063,3.071-4.884,4.253c-2.474,3.669-4.205,5.74-8.104,8.055l-12.74,7.559
	c-1.161,0.688-4.015,5.191-3.756,6.522c0.227,1.18,1.292,2.524,1.044,3.633c-0.218,0.968-3.016,1.682-3.926,1.902
	c-1.104,1.333-2.154,3.084-3.759,4.004c-1.227,0.705-3.571-0.021-5.051,0.537c-1.104,0.418-1.511-0.637-2.423-0.413
	c-0.907,0.224-1.491,0.786-2.423,0.786c-2.031,0-2.152-2.112-3.59,0.948c-1.153,2.454-1.49,5.891-2.882,8.259
	c-0.68,1.16-2.486,0.973-3.3,2.19c-1.224,1.827-1.241,2.316-2.63-0.083c-1.401-2.414-8.478,0.866-10.274,1.651
	c-2.111,0.925-2.151,5.081-3.383,6.649c-4.153,7.042-2.298,13.104,0.293,20.153c0.957,2.604-1.294,3.586-1.294,5.821
	c0,1.503,0.582,3.303,0.083,4.71c0.189,0.748,1.735,3.719,2.171,4.295c-0.802,1.058-0.126,2.397-0.126,3.509
	c-0.649,0-1.516-1.532-1.796-1.98c-0.681-1.096-1.043,1.85-1.043,2.188c0,3.452,2.575,2.062,4.133,4.377
	c0.96,1.423,0.488,3.507,0.083,5.122c-0.857,3.435-0.177,7.101-1.919,10.283c-0.466,1.012-0.365,2.191-0.919,3.18
	c-0.521,0.929-1.088,1.498-1.754,2.312c-1.25,1.533-2.465,2.835-3.173,4.751c-1.131,3.054-3.801,8.161-3.801,11.315
	c0,1.49,0.913,2.472,1.086,3.841c0.127,1.135,0.836,2.316,0.836,3.387c0,0.607-0.643,1.884-0.167,2.354
	c1.367,1.353-0.045,3.456-0.376,4.83c-0.124,0.52-1.191,2.172-1.086,2.356c0.247,0.431,1.737-0.825,2.298-0.825v3.962
	c0,1.542-0.554,5.353,0.041,6.565c0.678,1.385-0.192,1.471-1.169,0.786c-0.666-0.466-2.839-0.612-3.842-0.992
	c-2.885-1.087-4.326,2.035-6.558,1.776c-2.416,1.752-0.322,3.614-1.545,5.658c-0.879,1.47-2.714,3.945-3.882,5.244
	c-2.442,2.713-3.74,8.33,1.25,9.086c1.681,0.254,4.547-0.853,5.18,1.65c-2.373-0.584-5.069-1.816-7.727-1.07l-11.485,3.219
	c-1.428,0.4-2.762,1.847-4.094,2.604c-1.35,1.716-1.115,6.857-1.752,9.126c-0.63,2.231-5.417,6.482-7.686,7.062
	c-0.818,0.208-1.979,0.267-2.632,0.827c-2.11,1.805-3.521,1.553-5.888,0.618c-3.169-1.251-7.081-4.499-8.77-7.352
	c-1.312-0.862-3.225-3.9-4.093-5.286c-0.888-1.417-2.403-1.926-3.174-3.138c-0.64-1.005,0.905-1.123,1.462-1.571
	c1.272-1.022-0.676-1.027-1.462-0.576c-0.722,0.411-1.618-3.646-2.422-4.504c-1.878-2.001-2.254-5.481-2.63-8.011
	c-0.097-0.643-0.584-3.759-0.125-3.759c0,1.044,1.358,2.083,0.96,3.265c-0.753,2.232,1.702,2.357,1.628,1.651
	c-0.112-1.088-0.328-2.264-0.584-3.387c-1.094-3.514-3.229-7.294-4.843-10.612c-1.683-3.459-2.321-7.395-4.05-10.82
	c-1.007-1.993-2.281-3.656-2.59-5.946c-0.22-1.631-0.688-1.672-1.461-3.098c-0.222-2.827-2.652-5.518-3.634-8.135
	c-1.071-2.855-3.573-4.26-4.761-6.651c-1.295-2.609,0.194-1.651-2.297-2.684c-1.407-0.585-3.002-3.851-3.423-5.285
	c-0.773-2.63-2.954-6.878-4.594-9.004l-2.756-11.646c-0.779-3.295-0.712-8.054-2.173-11.067c-1.006-2.075-2.894-4.512-3.59-6.523
	c0-1.572-1.336-3.097-1.336-4.75c0-1.323,0.234-2.32-0.46-3.551c-1.279-2.271-1.279-4.062-3.967-5.246
	c-1.363-0.601-1.286-2.729,0.083-3.18c-0.066-0.269-0.888,0.058-1.043,0.125c-0.373,0.163-0.925-0.003-1.211-0.207
	c-0.804-0.575-0.56-1.986-1.336-2.56c-1.907-1.415-1.502-3.146-1.502-5.452c0-1.5-2.674-2.122-2.674-2.437
	c3.049-0.755,1.09-0.451-0.458-1.983c-1.157-1.961-1.81-3.509-2.59-5.616c-0.803-2.174-1.194-2.295-2.714-4.046
	c-0.664-0.769-0.958-2.046-1.169-3.016l-3.256-15.072c-1.143-4.805-2.72-9.118-3.007-14.083c-0.167-2.862-0.593-8.682-2.171-11.066
	c-0.498-0.753-1.53-2.404-1.63-3.223c-0.324-0.885-0.607-2.49,0.627-2.726c0.824-0.156-1.027-1.091-1.168-1.611
	c-0.368-1.345-2.487-4.171,0.584-4.171c-0.158-0.473-1.039-0.75-1.253-1.362c-0.264-0.757-0.384-1.571-0.751-2.312
	c-1.135-2.282-0.655-1.776,1.837-1.776c1.296,0,0.015-1.482-0.458-1.858c-1.587-1.27,0.923-1.835,1.879-2.603
	c2.051-1.648-1.128,0.237-1.128-2.478c0-2.654-1.863,5.494-3.426,1.983c-0.594-1.34,0.212-2.724-0.082-4.089
	c-0.367-1.704-0.673-2.106,1.628-2.106c1.03,0-0.467-0.953-0.626-1.032c-0.544-0.25-1.677,0.09-1.962-0.536
	c-0.205-0.447,0.021-0.668,0.083-1.073c0.108-0.713,1.228-1.018,1.752-1.362c0.287-0.189,0.952-0.389,1.129-0.619
	c-0.119-0.159-0.256-0.481-0.376-0.661c-0.077,0.02-0.065,0.008-0.083,0.082c-1.718,0.68-3.007,1.182-3.299-1.072
	c-0.211-1.623-0.174-3.228-0.335-4.875c-0.133-1.377-0.387-2.721-0.334-4.128c0.071-1.818,1.09-3.34,1.754-4.956
	c0.875-2.597,1.938-4.598,2.046-7.434c0.059-1.523,1.759-5.292,0.793-5.865c-2.023-1.196,0.068-2.009-0.835-3.427
	c-0.472-0.74-0.715-1.18-1.002-1.983c-0.608-1.704-5.021-0.752-2.589-3.305c1.022-1.072,0.941-0.575-0.042-2.063
	c-0.974-1.472-1.016-1.435,0.668-2.477c0.365-0.229-0.336-1.243-0.417-1.531c0.417-0.67,0.493-1.537,1.086-2.063
	c0.167-0.147,1.671-0.573,1.377-0.661c-1.568-0.463-2.837-0.9-4.636-0.743c-1.98,0.173-0.261-0.299,0.334-1.114
	c0.857-1.173,0.682-2.366,1.253-3.551c0.152-0.316,0.859-1.641,0.753-1.652c-0.604-0.066-2.482,1.203-3.26,1.403
	c-2.061,0.532-0.339-4.842,0.502-5.616c1.17-1.073,2.941-0.229,4.01-0.992c0.205-0.147,0.344-0.427,0.514-0.64
	c0.24-0.3,0.617-0.312-0.091-0.245c-1.052,0.096-2.066,0.445-3.096-0.064c-1.725-0.852-2.73,0.575-4.134,1.157
	c-2.001,0.829-1.515-5.868-2.298-3.841c-0.728,1.886,0.862,2.714,0.042,4.337c-1.488,2.942-2.021,5.287-2.838,8.465
	c0.804,3.026,2.241,3.711,0.458,6.691c-0.592,0.99-3.169,4.626-2.965,5.532c0.401,1.791-0.511,2.268-2.297,2.81
	c-1.905,0.575-5.175,3.281-6.934,3.015c-1.836-0.28-2.07,0.616-3.381,1.568c-8.182,3.01-13.226,7.808-20.758,1.033l-12.946-11.646
	l-8.729-8.55c-2.119-2.417-4.925-4.38-6.558-7.267c-0.743-1.318-3.323-4.13-2.255-5.658c0.203-0.291,1.333-1.982,1.544-1.982
	c0,0.28-0.19,1.546-0.04,1.694c0.341,0.336,1.674,0.365,2.129,0.247c0.46-0.122,0.689-0.656,0.876-0.703
	c0,1.031-1.106,2.006-0.459,2.891c0.641,0.879,2.363,0.164,3.09-0.248c2.074-0.513,3.472-2.12,5.302-1.361
	c1.94,0.803,2.104-2.47,3.342-1.736c1.328,0.786,1.79,0.464,2.965-0.454c1.713-1.34,1.58-2.135,3.843-1.817
	c2.368,0.334,3.216-2.976,4.635-4.378c0.804-0.795,0.816-2.833,1.92-3.221c0.731-0.259,1.503,0.473,1.711-0.455
	c0.161-0.711,0.022-1.328,0.335-2.022c0.208-0.462,0.877-0.964,0.877-1.446c-2.102,0-4.213,0.153-5.555-1.652
	c-1.292-1.739-1.752,2.519-1.795,3.263c-0.079,1.361-3.484,1.463-4.385,1.857c-2.417,0.553-3.345,2.151-5.429,2.974
	c-1.597,0.631-4.148-0.47-5.763-0.784c-3.673-0.716-8.435-3.055-11.444-5.202c-1.833-1.311-3.181-2.913-5.261-4.048
	c-0.693-0.377,1.741-0.829,1.043-2.023c-2.152-3.688-5.553-4.791-1.503-8.797c0.161-0.147,4.816-3.261,4.009-3.261
	c-1.459,0-3.536,1.038-4.761,0.866c0-0.498,0.75-2.322,0.458-2.395c-1.129-0.286-1.214,1.66-1.419,2.271
	c-0.571,1.7-2.024,1.561-2.297,3.592c-0.196,1.475-1.985,2.044-3.256,1.362c-0.284-0.149-0.533-0.316-0.753-0.492v-0.001
	c0.889-2.837,2.114-7.666,5.849-8.261c2.924-0.469,4.263,2.024,5.763-1.114c0.425-0.892,0.375-5.495,1.002-5.495
	c0.625,2.474,1.657,0.102,3.299,1.075c1.67,0.99,2.896-0.825,4.844-0.332c2.456,0.622,7.108-2.225,9.23,0.289
	c2.136,2.534,7.102,2.67,8.896-0.372c2.889-1.699,5.888-2.107,8.811-3.385c0.779-0.342,1.224,2.766,2.006,3.552
	c1.143,1.148,3.51,1.152,4.55-0.25c0.977-1.312,0.608-1.765,2.131-2.808c3.053-2.091-0.388-3.445,2.003-5.41
	c2.86-2.348-2.927-6.058-3.173-8.466c-0.153-1.505-0.205-2.438-0.668-3.84c-0.512-1.553-2.634-3.097-3.381-4.791
	c-0.664-1.914-0.467-4.118-0.794-6.112c-0.403-2.443-1.559-0.393-2.924-0.207c-3.434,0.472-5.245-1.565-6.893-4.212
	c-0.806-1.297-2.889-3.579-1.793-5.202c1.845-2.74,2.829-5.516,2.169-8.922c-0.771-3.991-5.944-1.88-8.853-3.139
	c-0.917-0.492-5.057-3.124-5.011-3.923c0.242-4.19,1.694-9.484,5.22-12.099c1.955-1.451,3.457-2.673,4.677-4.875
	c1.615-2.911,2.029-5.937,4.425-8.464c6.998-4.758,6.387-3.161,10.277,2.27c3.423,4.782,6.338,0.524,10.565-0.866
	c3.464-1.141,7.212-0.467,10.691-1.57c3.894-1.235,2.144-1.318,3.133-4.213c0.763-2.231,4.925-5.092,6.599-7.102
	c3.298-3.963,0.994-7.248,6.806-10.698c2.159-1.635,4.329-2.727,6.893-3.302c1.916-0.431,2.064-1.754,2.756-3.304
	c0.854-1.908,2.463-4.801,3.926-6.318c2.291-2.378,2.554-6.051,2.965-9.169c0.396-1.317,0.973-3.628,2.212-4.335
	c1.129-0.643,2.17-1.033,3.508-1.033c1.918,0,3.981-0.579,5.513-1.735c1.742-1.313,0.629-2.862,0.208-4.419l-1.012-2.194
	c0.311-0.12,0.675-0.306,1.012-0.573c0.397-0.312,1.826-1.91,1.921-2.105c0.361-0.75,2.381-2.422,3.09-2.85
	c2.68-1.617,3.388-6.096,6.933-7.639c1.322-0.578,0.631-2.603,1.839-2.603c0.357,0,1.961,1.666,1.961-0.041
	c0.117-0.696-0.1-0.324-0.166-0.785c-0.694-0.171-2.842-0.765-3.215-1.362c-0.951-1.521,0.775-4.678,1.379-6.236
	c0.459-1.194,0.37-2.571,0.125-3.799c-0.139-0.689-0.467-1.269-0.626-1.9c-0.307-1.197-0.333-2.013-0.355-3.248
	c2.176-2.089,4.305-3.985,4.697-3.773c1.361,0.738,1.953-2.041,3.173-2.477c1.412-0.502,2.836-0.044,4.177-0.537
	c1.431-0.525,3.669-1.918,5.576-3.265l-1.4-2.805c-0.542-0.665-4.652-3.949-5.219-4.005c-0.805-0.082-1.121,0.988-2.006,1.197
	c-1.007,0.237-1.064-0.851-1.753-1.156c-0.705-0.313-3.401,1.193-3.927,0.124c-0.379-0.773-1.02-5.281-1.085-6.36
	c-0.053-0.854,0.395-2.286-0.792-2.23c-1.208,0.057-2.292,1.88-3.216,1.651l-1.127,0.496c-1.403,0-1.817-1.151-2.756-1.858
	c-1.076-0.811-2.233-1.421-3.384-2.106c-1.011-0.604-2.143-0.918-3.13-1.569c-0.638-0.42-1.047-0.942-1.795-1.156
	c-1.37-1.083-2.639-1.279-4.136-1.942c-1.391-0.615-0.269-1.876-0.583-2.89c-0.227-0.728-0.646-1.342-0.836-2.106
	c-0.313-1.256,0.265-2.094,0.627-3.264c0.634-2.044-0.273-2.383-0.794-4.128c-0.584-1.966,0.156-3.382,0.083-5.203
	c-0.039-0.984-0.612-2.332-1.044-3.222c-0.493-1.019-0.938-3.577-1.169-4.75c-1.028-2.799-2.415-5.829-0.835-8.713
	c1.397-2.55,4.077-1.447,5.556-4.213c1.086-2.033,1.056-2.449,3.381-3.428c2.786-1.174,3.269-2.608,3.757-5.369
	c0.38-2.135,0.963-2.057-1.209-3.264c-1.853-1.625-6.605-0.506-5.931-3.839c0.409-2.031,2.997-4.604,0.25-5.079
	c-5.959-1.035-10.696-1.801-12.946-8.096c-0.473-1.322-2.979,0.687-3.926,0.579c-0.817-0.091-1.476-0.825-2.17-0.825
	c-1.936,0-2.85,1.529-4.47-0.166c-1.565-1.638-0.587-2.913-0.876-4.75c-1.194-4.73,1.691-3.843,4.343-5.7
	c2.379-1.662,2.662-4.261,5.011-5.905c1.756-1.227,1.35-2.342,1.879-4.045c0.102-0.327,5.971-1.356,6.975-1.529
	c1.801-0.308,2.177,0.849,3.8,0.909c0.567,0.022,4.178-0.175,4.51-0.33c1.472-0.688-0.461-2.691-1.317-3.022l-0.736-0.641
	c-1.683-1.46-1.103-0.817,0.614-0.954c0.952-0.075,1.844-0.169,2.86,0.694c2.079,1.764,4.985,0.618,6.933-0.784
	c2.354-1.696,3.806-2.3,6.56-3.016l0,0l0.713,0.931c0.486-0.375,1.404-3.999,2.292-3.121c0.462,0.458-0.008,1.776,1.169,1.776
	c0.758,0,1.208-0.549,1.796-0.744c0,1.3,0.708,3.266,2.422,2.85c2.011-0.488,1.576-2.277,4.011-1.073
	c1.483,0.733,2.651,0.355,4.216,0.703c1.056,0.232,1.459,5.017,1.628,6.194c0.096,0.668,3.583-1.382,4.929-0.826
	c1.173,0.485,3.177,0.905,3.925,2.024c1.188,1.775,1.679,3.579,2.799,5.452c1.276,2.134-0.79,2.567,0.417,4.955
	c0.476,0.851-2.403,2.927-1.21,3.841l3.34,2.561c2.004,1.533-0.899,3.558,3.3,3.717c2.143,0.082,3.813-1.199,5.68-1.199l0.042,0.042
	c0,2.463,1.13,2.961,2.882,4.461c1.297,1.112,4.341,1.402,5.01,2.188c1.491,1.761,5.833,2.644,7.894,2.644
	c1.11,0,1.888,1.445,3.592,1.445c1.342,0,3.91-0.377,5.219-0.702c0.179-0.135,0.146-0.288,0.334-0.165
	c1.048-1.166,3.015,1.646,4.05,0.536c0.6-0.641,0.313-3.13,1.796-2.809c2.382,0.52,4.068-2.315,6.475-3.139
	c2.144-0.733,3.973-2.209,5.637-3.675c2.861-2.516,6.142-1.793,9.814-1.981c1.695-0.088,3.678-1.19,5.097-0.083
	c1.544,1.208,2.902,2.699,4.51,3.799c1.089,1.284,3.738,3.353,5.344,3.882c2.231,0.734,3.281,1.842,4.01,4.005
	c0.774,2.298,1.549,2.034,3.132,0.538c0.585-0.554,1.294-2.486,1.96-0.91c0.966,2.276,3.193,0.503,0.92,3.676
	c-0.849,1.188-0.502,2.262-0.794,3.635c-0.224,1.059-1.192,1.443-1.461,2.312c-0.497,1.601-0.266,3.374-0.834,5.038
	c-0.399,1.167-2.903,4.151-2.205,5.263c0.032,2.182-2.537,0.631-4.06,1.634c-0.306,0.2-2.28,2.011-2.339,2.313
	c-0.475,2.442-0.244,1.871-2.671,2.271c-2.334,0.382-2.503-0.542-1.546,1.445c1.098,2.275-0.91,4.356-1.754,6.606
	c-1.205,3.215-1.419,1.977-3.967,2.106c-1.609,0.082-1.994,1.399-3.925,0.95c-1.463-0.339-3.778-0.754-3.634,1.734
	c0.06,1.026,3.638,4.928,2.976,5.914c0.737,2.709-3.018,0.149-3.018,2.552c0,0.828,0.625,1.507,1.004,2.189
	c0.312,0.562-0.175,1.37,0.208,1.981c1.254,2.003,2.132,5.182,5.094,4.709c2.329-0.373,4.262-0.073,3.216,2.849
	c-1.176,3.29,1.316,7.164,3.55,9.541c3.086,3.286-5.946,4.346-7.663,4.833c-1.29,1.828,0.063,2.488-2.403,3.096
	c-3.021,0.747-3.515,0.102-5.638-2.188c-0.402-0.433-0.78-4.612-1.003-5.493h-0.083c-0.069-0.207-0.495,0.833-0.585,0.949
	c-1.008,1.33-2.704,1.082-4.175,1.446c0,0.873-1.462,1.049-1.462,2.106c0,0.792,1.003,1.402,1.003,2.435
	c0,1.412-0.409,4.482,0.665,5.452c2.175,1.961,4.763,3.305,4.763,6.691c0,1.457-1.448,2.576-0.668,4.087
	c0.622,1.205,3.208,1.886,2.421,3.634c-0.408,0.388-1.19,0.25-1.336,0.827c-0.879,0.289,0.106,3.662,0.209,4.376
	c1.458,0.961,1.491,4.485,3.508,0.91c3.073-5.453,5.196,0.691,7.267,3.716c0.731,1.068,4.851,4.627,6.099,4.875
	c1.879,0.371,4.199-2.404,6.265,0.124c0.82,1.005,1.242,2.757,2.127,3.51c2.035,1.722,4.137-1.25,3.97,2.768
	c-0.126,2.954,2.54,4.249,5.344,4.501c1.368,0.861,3.392-0.014,4.343,1.694c1.06,1.903,2.341,2.527,4.51,3.013
	c2.222,0.499,2.719,0.629,3.759,2.686l0,0v-0.005H275.466z"/>
</svg>
