<?xml version="1.0" encoding="utf-8"?>
<!-- Generator: Adobe Illustrator 16.0.4, SVG Export Plug-In . SVG Version: 6.00 Build 0)  -->
<!DOCTYPE svg PUBLIC "-//W3C//DTD SVG 1.1//EN" "http://www.w3.org/Graphics/SVG/1.1/DTD/svg11.dtd">
<svg version="1.1" id="Layer_1" xmlns="http://www.w3.org/2000/svg" xmlns:xlink="http://www.w3.org/1999/xlink" x="0px" y="0px"
	 width="620.969px" height="664.467px" viewBox="0 0 620.969 664.467" enable-background="new 0 0 620.969 664.467"
	 xml:space="preserve">

<path id="IN-AR_1_" fill="#CDCCCC" stroke="#FFFFFF" stroke-width="0.5" d="M132.789,55.493l6.45-4.41l0.399-1.17l-0.42-1.2
	l-0.89-1.021l0.66-3.13l-0.86-0.26l-0.99-1l-0.359,0.05l-0.351-0.58l-1.029,0.021l-0.45-0.811l-1.221-0.83l-0.81,0.271l-1.16,0.97
	l-0.87-0.51l-3.52-0.74l-0.78-1.22l-1.79-1l-1.439,0.04l-1.58,1.07h-1.09l-0.521,0.649l-0.18,0.91l-0.48,0.15l-0.78-1.141
	l-0.859,0.17l-0.311-0.43l-0.84-0.2l1.75-1.38l-0.17-1.14l-0.31-0.28l0.6-0.62l1.061-0.34l-0.11-0.44l0.62,0.061l1.26-1.311
	l-0.41-0.939l1.851-0.561l1.08-1.199l-0.15-0.79l-2.54-3.971l-0.14-0.6l0.369-0.98l-0.51-0.479l-0.72,0.439l-1.82,0.131l-1.979,2.13
	l-1.54,0.92l-0.62-0.84l0.08-2.73l-0.71-0.54l1.18-0.26l0.96-1.37l2.67-0.8l0.88-1.78l-0.63-0.62l-1.399,1.13l-1.011,0.011
	l-1.239-1.73l-0.051-0.99l-0.68-1.029l-1.28-1.561l-0.319-0.01l-2.311,1.87l-0.84-0.101l-2.45,1.19l-0.16-0.15l-3.1,2.17l-0.31-0.09
	l-1.641,1.44l0.08,1.479l-0.45-0.159l-1.439,2.31l-0.91,0.06l-2.41-0.67l-0.54,0.12l-0.34-0.45l-2.36-0.909l-3.13-0.561l-2.58-1.03
	l-1.199,0.45l-0.15-1.439l-1.64-1.83l-1.301-0.681l-1.109,1.431l-0.25,0.96l-0.87,0.39l-2.28-0.02l-1.189,0.85l-0.261,0.62l-1,0.27
	l-1.51,1.58l-1.689,3.34l-2.69,2.2l-1.22,3.891l-2.12-0.5l-1.11,0.13l-0.6,0.38l-0.891-0.21l-1.729,0.7l-2.33-0.261l-0.65-0.479
	l-0.5,0.22l-0.069,0.38l-0.3-0.22l-2.211,1.03l-0.479,0.55l-0.17,1.27l-2.15,2.841l0.46,0.71l-0.01,1.029l-0.32,0.551l-3.819,0.369
	l-0.261,0.19l0.221,0.75l-0.69,0.74l-0.59-0.681l-1.72,1.431l-1.25,0.62l-0.29-0.71l-2.17,1.5l-0.65,1.319l0.94,0.91l0.38,1.2
	l-1.44,2.06l-1.32,0.53l-0.909,1.3l-0.341,0.08l-0.869-0.55l-0.96,0.88l-0.761-0.39l-0.72,0.149l-0.06,0.431l-1.48,0.359l-0.9-1.819
	l-0.13,0.89l-2.729,0.14l-2.25,1.82l-1.42,0.12l-0.55,0.33l-0.21-0.26l-0.61,0.109l-1.11-1.03l-3.42,0.04l-0.069,1.11l-1.141,1.3
	l0.03,1.03l0.64,1.82l0.91,1.13l1.95,1.28l3.84-0.521l0.73-0.49l1.96,2.9l0.51,1.29l-1.431,2.41l-0.6,0.46l-0.109,1.529l0.159,0.511
	l1.101,0.97l0.609,1.32l0.25,1.12l-0.649,1.399l0,0l2.069,0.14l5.471-1.1l4.01-1.7l3.41,1.94l3.74-0.12l3.369,0.28l2.931-0.67
	l0.68-1.091l1.89,0.101l0.931,0.71l4.02-0.83l1.11-0.54l1.979-1.63l0.2-0.86l-0.189-0.819l0.479-0.82l3.5-3.811l5.23-3.96
	l-0.221-1.26l0.551-0.31l3.93-0.13l2.05-0.381l3.87-1.229l2.92-1.63l8.45-3.4l0.79-0.229l1.88,0.729l2.6-0.85l2.69-1.79l5.979-0.271
	l-0.17,0.86l-1.04,1.49l-2.779,3.13l-0.09,0.79l0.529,2.28l0.78,0.8l1.1,0.479l-0.189,2.66l0.39,0.87l1.42-0.85l0.78,0.319
	l0.46,0.86l-1.75,2.81l-0.79,0.15l-0.71-0.39l-2.52,0.37l-1.891,0.77l-1.41-0.17l-0.55-0.55l-1.06,0.189l-1.17,2.45l-1.101,0.78
	l-4.27,1.84l-0.01,0.71l-0.461-0.32l-3.17,2.24l-0.869,0.07l-1.561-0.48l-1.439,2.26l-2.221,1.931l-1.35,0.62l-1.57,0.22l-1.5,0.77
	l-1.189,0.69l-0.95,1.16l0,0l-0.01,0.34l0,0l0.01-0.32l6.45,0.88l3.479,1.37l3.311,2.38l0,0v-1.939l1.619-3.21l1.91-1.37l0.32-0.07
	l0.16,0.67l3.77-1.42l1.28-2.3l0.37-0.27l1.649,0.029l1.33-1.72l2.771-2.38l2.18-0.65l1.021-1.13l1.39-2.46l1.41-1.03l1.899-0.859
	l4.83-0.8l1.44,0.05l2.57-1.46l2.14,0.01l1.96,1.01l1.24,3.19l2.39,1.12l1.26,0.93l1.551,0.14l0.479-0.939l-5.24-7.561l-0.35-3.279
	l0.94-1.44L132.789,55.493z"/>
<path id="IN-AS_1_" fill="#CDCCCC" stroke="#FFFFFF" stroke-width="0.5" d="M65.458,114.532l2.069,0.14l5.471-1.1l4.01-1.7
	l3.41,1.94l3.74-0.12l3.369,0.28l2.931-0.67l0.68-1.091l1.89,0.101l0.931,0.71l4.02-0.83l1.11-0.54l1.979-1.63l0.2-0.86
	l-0.189-0.819l0.479-0.82l3.5-3.811l5.23-3.96l-0.221-1.26l0.551-0.31l3.93-0.13l2.05-0.381l3.87-1.229l2.92-1.63l8.45-3.4
	l0.79-0.229l1.88,0.729l2.6-0.85l2.69-1.79l5.979-0.271l-0.17,0.86l-1.04,1.49l-2.779,3.13l-0.09,0.79l0.529,2.28l0.78,0.8
	l1.1,0.479l-0.189,2.66l0.39,0.87l1.42-0.85l0.78,0.319l0.46,0.86l-1.75,2.81l-0.79,0.15l-0.71-0.39l-2.52,0.37l-1.891,0.77
	l-1.41-0.17l-0.55-0.55l-1.06,0.189l-1.17,2.45l-1.101,0.78l-4.27,1.84l-0.01,0.71l-0.461-0.32l-3.17,2.24l-0.869,0.07l-1.561-0.48
	l-1.439,2.26l-2.221,1.931l-1.35,0.62l-1.57,0.22l-1.5,0.77l-1.189,0.69l-0.95,1.16l0,0l-0.01,0.62l0,0l-0.24,0.62l0,0l-0.4,0.699
	l0,0l-0.8,1.011l0,0l-0.48,0.46l-0.46-0.78l0,0l-0.229-0.7l0,0l-0.46-0.939l-0.96,1.31l-0.97,2.64l-2.86,3.24l-0.73,1.94l0,0
	l-0.159,0.54l0,0l-0.591,3.41l0,0l0.221,1.39l0,0l0.31,0.47l0,0l-0.55,0.62l0,0l-1.19,0.6l0,0l-2.52,0.841l-0.311-0.62l0.181-2.25
	l0,0h-0.71l0,0l-1.101,0.22l-0.399,0.93l-3.75,5.15l-1.74,0.91l-1.83,1.77l1.32,2.24l0.859,0.32l0.38,0.46l0.08,0.7l0,0
	l-0.409,1.609l0,0l-0.091,0.771l0.78,0.47l0,0l-0.81,0.41l-0.84,1.22l-2.141,6.11l-1.47,2.29l-1.16,0.62l-1.229,1.369l0.319,1.221
	l-0.149,1.21l-0.99,4.56l-0.311,0.16l0,0l-3.56,0.55l-0.39-0.31l-0.4-1.59l-1.09-1.2l-0.15,1.29l-2.46,4.6l-2.93,2.4l-0.851,0.149
	l-0.239-0.37l-0.13-1.859l-2.591-0.021l0,0l-1.87,0.08l1-2.8l-0.319-2.2l-0.47-0.76l-1.73-1.02l0,0l0.97-0.811l1.24-4.04l0.29-1.38
	l-0.29-2.04l0.74-0.26l2.16,1.29l0.96-0.01l1.13-0.631l-0.07-0.909l-1.37-1.101l-0.189-1.06l0,0l2.899-2.4l2.721-1.47l2.39-0.63
	l-0.311-2.51l-1.47-1.73l-1.53-0.21l-1.43-1.89l0.851-1.53l-4.021-4.22l-3.57,0.72l-1.58,1.09l0.16-6.53l1.721-2.199l-1.94-0.28
	l-4.25,1.27l-2.689-1.5l-0.61-0.069l-1.59,0.55l-2.95,1.18l-1.63,3.16l-3.03,0.79l-1.72,2.08l-0.91,0.32l-0.38-0.301l-0.18-1.76
	l-3.131-0.11l-0.34-0.34l0.09-1.42l-5.5-1.16l-3.27,0.271l-1.69-1.36l-2.449-0.35l-5.15,1.28l-2.11,1.55l-2.01,3.38l1.271,3.189
	l-1.881,1.311l-1.329,0.51l0,0l0.239-2.979l-1.13-3.971l0.851-1.899l-0.391-2.11l-1.979-3.57l-0.99-0.08l-0.74-0.68l0,0l1.75-2.31
	l1.311-0.92l0.479-2.601l-0.13-5.49l-0.46-0.47l0,0l7.3-1.109l0.561-0.421l0.14-0.909l0.69-0.851l3.529-1.2l3.601,2.25l2.96,0.74
	l7-0.37l1.439-0.47l2.29,0.07l1.561,0.64l1.399-0.59l0.851-1.54l1.729,0.09l0.851,1.42l3.54,0.101l2.52-1.421l3.96,0.25
	L65.458,114.532z"/>
<path id="IN-ML_1_" fill="#CDCCCC" stroke="#FFFFFF" stroke-width="0.5" d="M110.329,213.397l-1.641-1.48l-4.46-2.06l-1.56-0.38
	l-11.42,1.1l-4.53-1.51l-3.88,0.29l-2.16,0.71l-2.59,0.29l-6.39-0.58l-1.69,0.55l-1.31-0.09l-4.4-1.35l-4.16-1.841l-1.109-0.3
	l-1.261,0.44l-0.71-1.73l0.721-3.38l0,0l1.329-0.51l1.881-1.311l-1.271-3.189l2.01-3.38l2.11-1.55l5.15-1.28l2.449,0.35l1.69,1.36
	l3.27-0.271l5.5,1.16l-0.09,1.42l0.34,0.34l3.131,0.11l0.18,1.76l0.38,0.301l0.91-0.32l1.72-2.08l3.03-0.79l1.63-3.16l2.95-1.18
	l1.59-0.55l0.61,0.069l2.689,1.5l4.25-1.27l1.94,0.28l-1.721,2.199l-0.16,6.53l1.58-1.09l3.57-0.72l4.021,4.22l-0.851,1.53
	l1.43,1.89l1.53,0.21l1.47,1.73l0.311,2.51l-2.39,0.63l-2.721,1.47L110.329,213.397z"/>
<path id="IN-MN_1_" fill="#CDCCCC" stroke="#FFFFFF" stroke-width="0.5" d="M51.801,185.329l-0.68,0.59l-0.94,2.55l-0.09,1.8
	l0.79,0.87l2.15,0.69l0.26,0.38l0.021,2.05l-2.4,6.11l-3,4.01l-3.24,6.63l-1.93,6.15l-1.48,3.56l-0.27,0.17l-0.83-0.95l-1.29-0.75
	l-2.49-0.8l-1.79,0.46l-1.16-1.45l-1.569-0.34l-1.26-0.03l-0.721,1.011l-1.91,0.199l-0.55-0.189l-1.75-2.59l-0.42-0.09l-0.62,0.43
	l-0.2,0.8l0,0l-1.93-0.39l-2.26,0.13l-2.82-1.36l0.7-2.55l0.14-3.75l0,0l0.311-0.16l0.99-4.56l0.149-1.21l-0.319-1.221l1.229-1.369
	l1.16-0.62l1.47-2.29l2.141-6.11l0.84-1.22l0.81-0.41l0,0l0.55-0.15l0,0l1.41,0.63l0.22,1.381l0,0l0.561-0.381l1.92-3.52l0,0
	l0.95-0.69l1.12-2.069l-0.66-0.74l0.13-0.58l0,0l0.55-0.229l0,0l1.73-0.221l0,0l2.989-0.05l0,0l1.95,0.94l2.75,0.33l2.601-0.29
	l1.52-2.15l1.98-1.45l0,0l0.55-0.38l0,0l0.71,0.16l-0.021,1.39l0,0l-0.72,1.84l0,0l0.14,1.011L51.801,185.329z"/>
<path id="IN-MZ_1_" fill="#CDCCCC" stroke="#FFFFFF" stroke-width="0.5" d="M137.572,224.67l-0.14,3.75l-0.7,2.55l2.82,1.36
	l2.26-0.13l1.93,0.39l0,0l0.03,1.23l0.45,0.609l0.68,2.351l0.79,4.14l-0.479,5.32l-0.561,1.461l0.33,2.809l-0.8,3.551l-0.9,1.189
	l-1.189,0.24l-0.43-0.25l-0.341-0.74l-0.51-0.17l-0.93,0.27l-0.28,0.73l0.29,1.35l-0.97,5.281l0.54,4.07l0.47,1.43l0.7,0.529
	l0.45,3.9l-0.87,1.699l-0.54,0.041l-1.19-0.57l-0.5,0.16l-1.149,3.43l-1.36,0.961l-0.811-0.191l-0.47-0.859l-1.3-1.24l-1.9-1
	l-0.619,2.85l-1.54,0.941l-0.33-1.842l0.25-2.408l-0.38-3.24l-1.11-5.07l-0.29-3.85l-0.68-0.48l-2.09-4.23l-0.521-6.43l0.76-1.26
	l-1.31-3.791l-0.69-5.26l-0.43-0.6l0,0l0.3-2.79l0.49-0.36l0.43-2.96l-0.05-3.55l-0.4-1.681l0,0l2.591,0.021l0.13,1.859l0.239,0.37
	l0.851-0.149l2.93-2.4l2.46-4.6l0.15-1.29l1.09,1.2l0.4,1.59l0.39,0.31L137.572,224.67z"/>
<path id="IN-NL_1_" fill="#CDCCCC" stroke="#FFFFFF" stroke-width="0.5" d="M38.998,224.872L38.998,224.872l-0.24,0.62l0,0
	l-0.4,0.699l0,0l-0.8,1.011l0,0l-0.48,0.46l-0.46-0.78l0,0l-0.229-0.7l0,0l-0.46-0.939l-0.96,1.31l-0.97,2.64l-2.86,3.24l-0.73,1.94
	l0,0l-0.159,0.54l0,0l-0.591,3.41l0,0l0.221,1.39l0,0l0.31,0.47l0,0l-0.55,0.62l0,0l-1.19,0.6l0,0l-2.52,0.841l-0.311-0.62
	l0.181-2.25l0,0h-0.71l0,0l-1.101,0.22l-0.399,0.93l-3.75,5.15l-1.74,0.91l-1.83,1.77l1.32,2.24l0.859,0.32l0.38,0.46l0.08,0.7l0,0
	l-0.409,1.609l0,0l-0.091,0.771l0.78,0.47l0,0l0.55-0.15l0,0l1.41,0.63l0.22,1.381l0,0l0.561-0.381l1.92-3.52l0,0l0.95-0.69
	l1.12-2.069l-0.66-0.74l0.13-0.58l0,0l0.55-0.229l0,0l1.73-0.221l0,0l2.989-0.05l0,0l1.95,0.94l2.75,0.33l2.601-0.29l1.52-2.15
	l1.98-1.45l0,0l0.55-0.38l0,0l0.71,0.16l-0.021,1.39l0,0l-0.72,1.84l0,0l0.14,1.011l1.83,1.04l0,0l0.521-0.86l1.09-0.65l1.1-0.12
	l1.881-1.779l2.279-3.48l1.45-4.85l2.01-2.061l0.21-0.659l-1.27-1.641l-0.68-2.189l-0.29-3.551l0,0l-3.311-2.38l-3.479-1.37
	l-6.45-0.88l-0.01,0.32V224.872z"/>
<path id="IN-SK_1_" fill="#CDCCCC" stroke="#FFFFFF" stroke-width="0.5" d="M137.75,186.072l0.649,0.88l1.21-0.03l2.2,1.521
	l0.07,1.8l0.51,0.189l0.33,1.11l0.07,0.85l-0.54,0.511l0.13,1.54l-0.46,0.909l0.149,0.311l-0.31,0.979l-0.43,0.29l-0.87,1.73
	l-0.05,0.56l0.34,2.271l0.38,0.63l2.41,2.28l-0.54,0.92l-1.65,0.51l-0.99,1.62l-0.189,0.83l0,0l-3.351-0.53l-3.13,2.38l-8.75-1.92
	l0,0l0.94-8.78l1.31-1.81l1.37-3.93l0.021-1.54l-0.931-0.391l-0.43-0.95l0.33-0.97l1.04,0.13l0.22-0.359l0.69-0.12l0.22,0.359
	l1.41-0.649l1.59-0.03l2.57-1.53l0.489,0.131l0.271-0.671l1.479-1.14L137.75,186.072z"/>
<path id="IN-TR_1_" fill="#CDCCCC" stroke="#FFFFFF" stroke-width="0.5" d="M95.422,230.265l0.4,1.681l0.05,3.55l-0.43,2.96
	l-0.49,0.36l-0.3,2.79l0,0l-1.351,0.289l-0.569-0.68l-2.21,1.93l-0.71,0.101l-1.521-1.82l-0.41,1.05l0.57,3.891l-0.91,1.41
	l-1.58,0.71l-1.26,2.18l-0.32,1.279l1.03,3.65l-0.81,1.18l-1.101,0.939l-2.33,1.111l-1.02-0.91l-1.79-5.211l-1-0.92l-0.48-0.09
	l-0.47,1.041l0.41,3.309l-0.51,0.07l-0.37-0.32l-0.49-0.959l-1.6-7.27l-0.94-1.311l-0.97-2.689l-0.1-2.101l0.189-0.43l0.99-0.24
	l0.76-1.88l-0.3-1.38l0.649-1.49l2.33-3.05l0.79-0.09l2.58,0.5l4.221-1.511l2.68,0.07l0.49-0.57l0.51-2.359l-0.21-1.01l0.52-0.49
	l0.7,0.649l2.8-1.56l0.32-0.44l0.17-2.619l0,0l1.73,1.02l0.47,0.76l0.319,2.2l-1,2.8L95.422,230.265z"/>
</svg>
