<?xml version="1.0" encoding="utf-8"?>
<!-- Generator: Adobe Illustrator 16.0.4, SVG Export Plug-In . SVG Version: 6.00 Build 0)  -->
<!DOCTYPE svg PUBLIC "-//W3C//DTD SVG 1.1//EN" "http://www.w3.org/Graphics/SVG/1.1/DTD/svg11.dtd">
<svg x="0px" y="0px"
	 width="500" height="250">
<g id="Layer_1">
	<path fill-rule="evenodd" clip-rule="evenodd" fill="none" stroke="#000066" stroke-miterlimit="10" d="M24.144,1009.99
		c4.013-6.421,24.08-24.08,25.686-29.699s14.448-9.634,19.265-15.252s5.619-12.04,12.041-15.251
		c6.421-3.211,14.448-17.659,18.462-19.265s12.041-2.407,16.054-12.04c4.014-9.633,23.278-32.109,31.306-37.728
		c8.026-5.618,48.162-30.503,55.386-39.332c7.225-8.829,36.122-25.686,41.74-33.713c5.619-8.027,10.373-24.981,18.431-26.137
		c8.059-1.155,58.629,0.449,64.247-6.774c5.619-7.224,59.399-12.843,81.072-13.646s37.728-52.175,36.122-61.005
		s0-36.121,20.067-40.135s51.372-31.305,58.597-42.543c0,0,63.475-29.393,69.757-38.814c6.281-9.422,16.751-30.361,29.838-27.744
		s95.797-16.229,113.071-20.939s109.931-21.462,136.104-47.636s72.764-125.634,98.414-133.487s41.877-26.174,65.434-31.932
		s88.992-31.932,97.891-43.972c8.899-12.04,47.637-62.294,84.28-69.099s92.133,16.751,124.064,9.946s87.943-45.019,106.266-51.301
		s55.489-0.524,68.053,7.852s53.395,1.57,62.817,5.235c0,0,67.526,5.235,80.613,5.235s58.105,14.133,76.951,9.946
		s38.737-46.589,48.16-51.824s36.641-9.421,40.305-15.703s37.166-49.207,46.065-53.918s9.947-43.972,14.135-46.589
		s10.993-13.086,16.228-8.375"/>
</g>
</svg>
