<?xml version="1.0" encoding="utf-8"?>
<!-- Generator: Adobe Illustrator 16.0.4, SVG Export Plug-In . SVG Version: 6.00 Build 0)  -->
<!DOCTYPE svg PUBLIC "-//W3C//DTD SVG 1.1//EN" "http://www.w3.org/Graphics/SVG/1.1/DTD/svg11.dtd">
<svg version="1.1" xmlns="http://www.w3.org/2000/svg" xmlns:xlink="http://www.w3.org/1999/xlink" x="0px" y="0px"
	 width="1930.503px" height="1047.872px" viewBox="0 0 0 0" enable-background="new 0 0 0 0"
	 xml:space="preserve">
<g id="Layer_2" display="none">
</g>
<g id="Layer_1">
	<path fill-rule="evenodd" clip-rule="evenodd" fill="none" stroke="#000066" stroke-miterlimit="10" d="M33.182,1021.389
		c4.014-6.421,24.08-24.08,25.686-29.699s14.449-9.634,19.266-15.252s5.619-12.04,12.04-15.251s14.448-17.659,18.462-19.265
		s12.041-2.407,16.055-12.04c4.013-9.633,23.277-32.109,31.305-37.728s48.162-30.503,55.387-39.332
		c7.224-8.829,36.121-25.686,41.74-33.713c5.618-8.027,10.372-24.981,18.43-26.137c8.059-1.155,58.629,0.449,64.248-6.774
		c5.618-7.224,59.398-12.843,81.072-13.646c21.672-0.803,37.727-52.175,36.121-61.005s0-36.121,20.067-40.135
		s51.372-31.305,58.597-42.543c0,0,63.475-29.393,69.757-38.814s16.751-30.361,29.839-27.744
		c13.086,2.617,95.797-16.229,113.07-20.939c17.275-4.711,109.931-21.462,136.104-47.636s72.764-125.634,98.414-133.487
		s41.878-26.174,65.435-31.932s88.991-31.932,97.891-43.972c8.898-12.04,47.636-62.294,84.279-69.099s92.133,16.751,124.064,9.946
		s87.943-45.019,106.266-51.301s55.489-0.524,68.053,7.852s53.395,1.57,62.817,5.235c0,0,67.526,5.235,80.613,5.235
		s58.105,14.133,76.951,9.946s38.737-46.589,48.16-51.824s36.641-9.421,40.305-15.703s37.166-49.207,46.065-53.918
		s9.947-43.972,14.135-46.589s10.993-13.086,16.228-8.375"/>
</g>
</svg>
