<?xml version="1.0" encoding="utf-8"?>
<!-- Generator: Adobe Illustrator 16.0.4, SVG Export Plug-In . SVG Version: 6.00 Build 0)  -->
<!DOCTYPE svg PUBLIC "-//W3C//DTD SVG 1.1//EN" "http://www.w3.org/Graphics/SVG/1.1/DTD/svg11.dtd">
<svg version="1.1" id="Layer_1" xmlns="http://www.w3.org/2000/svg" xmlns:xlink="http://www.w3.org/1999/xlink" x="0px" y="0px"
	 width="50.976px" height="18.5px" viewBox="0 0 50.976 18.5" enable-background="new 0 0 50.976 18.5" xml:space="preserve">
<g>
	<g>
		<path d="M5.631,14.55C13.75,7.113,35.19,0.881,43.187,11.769c1.64,2.231,5.412,0.068,3.751-2.193
			C37.083-3.842,13.042,1.876,2.56,11.478C0.49,13.374,3.57,16.438,5.631,14.55L5.631,14.55z"/>
	</g>
</g>
<g>
	<g>
		<path d="M38.328,13.579c2.537-0.406,5.276,0.691,7.598,1.59c1.165,0.45,2.304-0.493,2.672-1.518
			c1.187-3.306-0.081-6.73-0.2-10.095c-0.099-2.793-4.443-2.803-4.344,0c0.103,2.895,1.367,6.122,0.355,8.94
			c0.891-0.506,1.781-1.012,2.672-1.518c-3.191-1.234-6.475-2.139-9.907-1.59C34.413,9.831,35.589,14.017,38.328,13.579
			L38.328,13.579z"/>
	</g>
</g>
</svg>
