<?xml version="1.0" encoding="utf-8"?>
<!-- Generator: Adobe Illustrator 16.0.4, SVG Export Plug-In . SVG Version: 6.00 Build 0)  -->
<!DOCTYPE svg PUBLIC "-//W3C//DTD SVG 1.1//EN" "http://www.w3.org/Graphics/SVG/1.1/DTD/svg11.dtd">
<svg version="1.1" id="Layer_1" xmlns="http://www.w3.org/2000/svg" xmlns:xlink="http://www.w3.org/1999/xlink" x="0px" y="0px"
	 width="33.634px" height="50.068px" viewBox="0 0 33.634 50.068" enable-background="new 0 0 33.634 50.068" xml:space="preserve">
<g>
	<g>
		<path fill="#EED794" d="M3.478,4.455C3.461,8.685,3.095,13.73,5.201,17.601c2.23,4.101,5.511,6.154,9.444,8.467
			c6.569,3.862,3.449,8.626,6.292,14.014c1.917,3.636,5.693,4.726,8.503,7.493c1.379,1.358,3.501-0.762,2.121-2.121
			c-2.918-2.875-6.903-3.894-8.443-8.035c-1.472-3.959-0.069-7.097-2.826-10.713c-1.909-2.505-5.363-3.9-7.967-5.519
			C6.304,17.445,6.452,10.688,6.478,4.455C6.485,2.521,3.485,2.521,3.478,4.455L3.478,4.455z"/>
	</g>
</g>
</svg>
